<svg width="2275" height="1822" viewBox="0 0 2275 1822" fill="none" xmlns="http://www.w3.org/2000/svg">
<path d="M682.5 520.5L702.289 493.964C703.645 492.147 705.909 491.249 708.142 491.643L747 498.5" stroke="#4D4D4D"/>
<path d="M878 509.5L895.087 481.899C896.511 479.597 899.301 478.535 901.896 479.305L929.5 487.5" stroke="#4D4D4D"/>
<path d="M1527 414L1543.59 445.471C1545.18 448.488 1548.96 449.575 1551.91 447.864L1587 427.5" stroke="#4D4D4D"/>
<path d="M1224 508.5L1245.42 471.547C1247.44 468.049 1252.28 467.516 1255.02 470.489L1273 490" stroke="#4D4D4D"/>
<path d="M1381.5 503.5L1410.34 482.087C1412.73 480.313 1416.06 480.558 1418.16 482.662L1428 492.5" stroke="#4D4D4D"/>
<path d="M1404.85 651.299L1433.41 594.171C1434.64 591.717 1437.38 590.408 1440.06 590.992L1523.98 609.255C1527.95 610.118 1529.93 614.593 1527.9 618.112L1480.22 700.905C1478.48 703.927 1474.54 704.834 1471.66 702.878L1406.85 658.949C1404.36 657.261 1403.51 653.99 1404.85 651.299Z" fill="white" fill-opacity="0.01" stroke="#4D4D4D"/>
<path d="M1502.9 724.833L1440.25 672.625C1438.07 670.805 1437.46 667.701 1438.8 665.192L1462.41 620.91C1463.65 618.586 1466.26 617.342 1468.85 617.843L1551.93 633.937C1555.92 634.71 1558 639.145 1556.05 642.71L1512 723.107C1510.19 726.419 1505.8 727.251 1502.9 724.833Z" fill="white" fill-opacity="0.01" stroke="#4D4D4D"/>
<path d="M1638.67 591.717L1666.84 541.362C1668.12 539.066 1670.75 537.874 1673.33 538.422L1752.44 555.282C1756.42 556.131 1758.42 560.614 1756.39 564.143L1712.24 640.875C1710.49 643.908 1706.53 644.81 1703.65 642.833L1640.52 599.597C1637.96 597.843 1637.16 594.426 1638.67 591.717Z" fill="white" fill-opacity="0.01" stroke="#4D4D4D"/>
<path d="M1800.28 546.688L1781.61 592.589C1780.23 595.972 1776.18 597.351 1773.02 595.509L1732.91 572.075C1730.37 570.591 1729.28 567.482 1730.34 564.736L1742.67 532.74C1743.73 530.004 1746.6 528.432 1749.48 529.021L1795.93 538.549C1799.6 539.303 1801.69 543.211 1800.28 546.688Z" fill="white" fill-opacity="0.01" stroke="#4D4D4D"/>
<path d="M1210.5 701.5L1248.11 645.788C1249.77 643.324 1252.99 642.45 1255.67 643.732L1297 663.5" stroke="#4D4D4D"/>
<path d="M1196.29 790.582L1228.8 733.378C1230.1 731.076 1232.77 729.903 1235.35 730.493L1315.09 748.695C1319.02 749.592 1320.97 754.036 1318.96 757.533L1272.16 839.007C1270.44 841.991 1266.57 842.925 1263.69 841.051L1198.24 798.579C1195.58 796.85 1194.73 793.344 1196.29 790.582Z" fill="white" fill-opacity="0.01" stroke="#4D4D4D"/>
<path d="M1227.96 803.448L1257.28 758.415C1258.62 756.354 1261.08 755.32 1263.49 755.808L1343.17 771.916C1347.08 772.708 1349.15 777.039 1347.29 780.58L1304.38 862.538C1302.63 865.885 1298.26 866.799 1295.31 864.435L1229.24 811.4C1226.83 809.47 1226.28 806.032 1227.96 803.448Z" fill="white" fill-opacity="0.01" stroke="#4D4D4D"/>
<path d="M1318.57 895.126L1337.94 810.166C1338.56 807.437 1340.99 805.5 1343.79 805.5H1391.53C1394.18 805.5 1396.52 807.239 1397.28 809.778L1424.53 900.743C1425.73 904.746 1422.57 908.718 1418.4 908.453L1324.04 902.448C1320.35 902.213 1317.75 898.73 1318.57 895.126Z" fill="white" fill-opacity="0.01" stroke="#4D4D4D"/>
<path d="M1455.45 786.403L1442.28 798.932C1439.9 801.189 1439.78 804.933 1442 807.343L1462.7 829.825C1465.03 832.362 1469.02 832.412 1471.42 829.935L1491.81 808.88C1494.63 805.967 1493.81 801.153 1490.18 799.34L1462.27 785.383C1460.01 784.253 1457.28 784.661 1455.45 786.403Z" fill="white" fill-opacity="0.01" stroke="#4D4D4D"/>
<path d="M1521.8 868.505L1550.36 842.574C1553.39 839.828 1558.21 840.842 1559.87 844.575L1577.97 885.202C1579.53 888.698 1577.46 892.737 1573.71 893.518L1537.62 901.038C1534.91 901.603 1532.16 900.24 1530.97 897.74L1520.41 875.524C1519.28 873.135 1519.84 870.283 1521.8 868.505Z" fill="white" fill-opacity="0.01" stroke="#4D4D4D"/>
<path d="M1734.03 721.678L1702.74 754.176C1701.34 755.627 1700.76 757.682 1701.2 759.648L1707.4 787.363C1708.23 791.056 1712.23 793.072 1715.69 791.54L1763.82 770.233C1767.11 768.779 1768.39 764.781 1766.56 761.689L1743.52 722.782C1741.5 719.371 1736.78 718.822 1734.03 721.678Z" fill="white" fill-opacity="0.01" stroke="#4D4D4D"/>
<path d="M354.872 648.173L332.748 688.866C331.428 691.293 331.936 694.308 333.979 696.168L355.016 715.327C357.061 717.19 360.114 717.413 362.408 715.868L401.117 689.799C404.357 687.617 404.681 682.968 401.774 680.358L364.152 646.575C361.268 643.986 356.723 644.769 354.872 648.173Z" fill="white" fill-opacity="0.01" stroke="#4D4D4D"/>
<path d="M165.319 665.345L183.432 637.212C184.694 635.252 186.976 634.201 189.285 634.514L228.348 639.824C232.519 640.391 234.825 644.965 232.8 648.655L209.03 691.978C207.381 694.983 203.553 695.999 200.631 694.206L167.226 673.707C164.358 671.947 163.498 668.174 165.319 665.345Z" fill="white" fill-opacity="0.01" stroke="#4D4D4D"/>
<path d="M608.309 727.117L594.727 696.848C593.691 694.539 594.214 691.829 596.036 690.072L628.937 658.346C631.905 655.484 636.809 656.4 638.545 660.14L661.132 708.82C662.654 712.099 660.952 715.969 657.507 717.063L615.6 730.379C612.694 731.303 609.557 729.9 608.309 727.117Z" fill="white" fill-opacity="0.01" stroke="#4D4D4D"/>
<path d="M613.06 736.423L610.439 703.349C610.239 700.827 611.643 698.45 613.949 697.408L655.598 678.582C659.355 676.884 663.666 679.394 664.044 683.5L668.96 736.94C669.291 740.539 666.387 743.612 662.775 743.485L618.831 741.945C615.783 741.838 613.3 739.463 613.06 736.423Z" fill="white" fill-opacity="0.01" stroke="#4D4D4D"/>
<path d="M58.7684 128.294L30.4285 160.904C28.0717 163.616 28.6106 167.777 31.5805 169.8L66.673 193.692C69.8917 195.884 74.3128 194.476 75.6722 190.827L90.4644 151.122C91.3785 148.668 90.596 145.905 88.5311 144.295L66.9864 127.498C64.4709 125.537 60.8607 125.886 58.7684 128.294Z" fill="white" fill-opacity="0.01" stroke="#4D4D4D"/>
<path d="M276.934 195.271L201.138 177.946C198.658 177.379 196.091 178.437 194.731 180.587L168.835 221.518C167.216 224.078 167.758 227.443 170.099 229.364L232.782 280.807C235.728 283.225 240.154 282.318 241.912 278.936L280.92 203.887C282.732 200.402 280.762 196.146 276.934 195.271Z" fill="white" fill-opacity="0.01" stroke="#4D4D4D"/>
<path d="M304.369 171.048L297.353 134.12C296.65 130.423 299.485 127 303.247 127H323.771C325.505 127 327.154 127.75 328.293 129.057L353.702 158.202C356.73 161.676 354.875 167.125 350.356 168.029L311.44 175.812C308.169 176.466 304.992 174.326 304.369 171.048Z" fill="white" fill-opacity="0.01" stroke="#4D4D4D"/>
<path d="M385.5 41.6812V6C385.5 2.68629 388.186 0 391.5 0H420.314C422.575 0 424.644 1.27119 425.666 3.28821L439.43 30.4538C441.224 33.9948 439.147 38.2706 435.254 39.0491L392.677 47.5647C388.964 48.3072 385.5 45.4675 385.5 41.6812Z" fill="white" fill-opacity="0.01" stroke="#4D4D4D"/>
<path d="M543.162 109.113L525.064 68.3942C523.497 64.8676 519.056 63.7164 515.973 66.0375L481.102 92.2882C478.968 93.8946 478.153 96.718 479.103 99.2144L489.065 125.412C490.163 128.298 493.272 129.88 496.252 129.068L539.257 117.339C542.804 116.372 544.654 112.472 543.162 109.113Z" fill="white" fill-opacity="0.01" stroke="#4D4D4D"/>
<path d="M494.64 126.112L502.396 100.628C503.07 98.4121 504.96 96.7823 507.251 96.4407L551.634 89.8222C555.859 89.1921 559.371 93.0544 558.342 97.2008L546.622 144.461C545.758 147.943 542.051 149.894 538.691 148.634L498.273 133.477C495.308 132.366 493.718 129.142 494.64 126.112Z" fill="white" fill-opacity="0.01" stroke="#4D4D4D"/>
<path d="M591.746 176.38L544.477 160.357C541.42 159.32 539.731 156.051 540.654 152.958L547.844 128.874C548.543 126.532 550.592 124.848 553.024 124.617L603.675 119.793C607.763 119.404 611.025 123.143 610.085 127.14L599.513 172.072C598.702 175.518 595.099 177.517 591.746 176.38Z" fill="white" fill-opacity="0.01" stroke="#4D4D4D"/>
<path d="M42 270.873V189.5C42 186.186 44.6863 183.5 48 183.5H103.978C106.411 183.5 108.604 184.97 109.528 187.22L139.439 260.048C140.965 263.763 138.48 267.9 134.483 268.298L48.5941 276.844C45.063 277.195 42 274.422 42 270.873Z" fill="white" fill-opacity="0.01" stroke="#4D4D4D"/>
<path d="M319.885 262.961L237.926 246.395C235.305 245.865 232.65 247.134 231.415 249.506L210.207 290.26C208.915 292.741 209.51 295.785 211.639 297.598L276.117 352.491C279.099 355.03 283.674 354.077 285.396 350.559L324.086 271.479C325.813 267.949 323.737 263.739 319.885 262.961Z" fill="white" fill-opacity="0.01" stroke="#4D4D4D"/>
<path d="M407.416 254.148L418.871 241.421C420.468 239.647 422.964 238.988 425.228 239.743L454.21 249.403C458.46 250.82 459.715 256.227 456.522 259.371L435.125 280.438C432.823 282.705 429.141 282.742 426.793 280.523L407.754 262.522C405.388 260.285 405.238 256.569 407.416 254.148Z" fill="white" fill-opacity="0.01" stroke="#4D4D4D"/>
<path d="M622.5 179.5L639.615 156.822C641.303 154.586 644.312 153.816 646.867 154.965L662.5 162" stroke="#4D4D4D"/>
<path d="M171.366 358.345L197.512 333.337C199.549 331.388 202.667 331.12 205.006 332.693L227.374 347.727C229.767 349.335 230.678 352.419 229.542 355.07L213.664 392.118C212.084 395.803 207.404 396.932 204.318 394.372L171.683 367.299C168.922 365.009 168.774 360.825 171.366 358.345Z" fill="white" fill-opacity="0.01" stroke="#4D4D4D"/>
<path d="M1.81548 333.749L12.7985 315.215C14.1136 312.996 16.6999 311.866 19.2218 312.408L53.5766 319.796C57.5177 320.644 59.5184 325.059 57.5573 328.581L40.258 359.649C38.5195 362.771 34.4539 363.691 31.5407 361.621L3.50198 341.699C0.957548 339.891 0.224224 336.434 1.81548 333.749Z" fill="white" fill-opacity="0.01" stroke="#4D4D4D"/>
<path d="M169.502 502.345L198.806 456.903C200.132 454.846 202.574 453.801 204.977 454.261L287.066 469.981C291.018 470.737 293.119 475.092 291.253 478.657L248.302 560.692C246.577 563.988 242.299 564.936 239.343 562.676L170.901 510.364C168.415 508.464 167.807 504.974 169.502 502.345Z" fill="white" fill-opacity="0.01" stroke="#4D4D4D"/>
<path d="M378.743 361.005L360.265 372.375C357.795 373.895 356.766 376.964 357.82 379.665L372.948 418.457C374.288 421.892 378.38 423.318 381.564 421.458L423.662 396.87C427.503 394.627 427.653 389.131 423.941 386.681L385.192 361.107C383.245 359.822 380.73 359.782 378.743 361.005Z" fill="white" fill-opacity="0.01" stroke="#4D4D4D"/>
<path d="M523.218 467.809L457.904 360.891C455.902 357.613 451.377 357.035 448.614 359.705L367.742 437.867C365.821 439.723 365.359 442.625 366.607 444.986L403.53 514.828C404.942 517.499 408.119 518.703 410.946 517.64L520.21 476.553C523.734 475.228 525.181 471.022 523.218 467.809Z" fill="white" fill-opacity="0.01" stroke="#4D4D4D"/>
<path d="M361 457H419.495C421.92 457 424.106 458.46 425.036 460.699L455.964 535.187C457.488 538.858 455.085 542.971 451.138 543.445L361.716 554.193C358.144 554.622 355 551.833 355 548.236V463C355 459.686 357.686 457 361 457Z" fill="white" fill-opacity="0.01" stroke="#4D4D4D"/>
<path d="M545.636 573.922L526.355 584.94C523.422 586.616 522.45 590.383 524.207 593.269L545.815 628.768C547.563 631.64 551.33 632.515 554.165 630.708L587.064 609.739C590.633 607.464 590.788 602.308 587.362 599.823L552.136 574.274C550.227 572.89 547.684 572.752 545.636 573.922Z" fill="white" fill-opacity="0.01" stroke="#4D4D4D"/>
<path d="M691.944 335.305L640.246 313.693C637.304 312.463 633.914 313.749 632.528 316.62L595.924 392.444C594.366 395.671 595.966 399.536 599.349 400.717L680.235 428.963C683.924 430.251 687.839 427.727 688.189 423.836L695.606 341.378C695.841 338.772 694.359 336.314 691.944 335.305Z" fill="white" fill-opacity="0.01" stroke="#4D4D4D"/>
<path d="M648.574 397H619.237C616.237 397 613.698 399.216 613.292 402.189L607.429 445.189C606.937 448.792 609.738 452 613.374 452H661.865C665.905 452 668.791 448.088 667.598 444.228L654.307 401.228C653.53 398.714 651.206 397 648.574 397Z" fill="white" fill-opacity="0.01" stroke="#4D4D4D"/>
<path d="M779.001 326.865L794.24 302.334C795.334 300.572 797.262 299.5 799.336 299.5H843.054C847.45 299.5 850.354 304.071 848.485 308.05L828.093 351.478C826.668 354.513 823.033 355.791 820.022 354.316L781.457 335.419C778.268 333.856 777.127 329.881 779.001 326.865Z" fill="white" fill-opacity="0.01" stroke="#4D4D4D"/>
<path d="M724.209 176.167L738.281 151.066C739.343 149.172 741.344 148 743.515 148H786.664C791.032 148 793.936 152.519 792.122 156.493L769.933 205.077C768.396 208.443 764.208 209.629 761.135 207.568L726.102 184.085C723.503 182.343 722.679 178.896 724.209 176.167Z" fill="white" fill-opacity="0.01" stroke="#4D4D4D"/>
<path d="M788.236 117.155L783.309 76.217C782.879 72.6448 785.668 69.5 789.266 69.5H816.31C818.304 69.5 820.169 70.4914 821.284 72.1451L843.381 104.91C845.797 108.493 843.747 113.379 839.497 114.164L795.284 122.338C791.879 122.968 788.65 120.593 788.236 117.155Z" fill="white" fill-opacity="0.01" stroke="#4D4D4D"/>
<path d="M806.274 98.9103L833.401 63.805C835.587 60.9751 839.749 60.6744 842.319 63.1605L877.754 97.4266C880.471 100.054 880.111 104.509 877.008 106.666L835.284 135.674C832.619 137.527 828.965 136.925 827.035 134.316L806.198 106.147C804.602 103.989 804.633 101.034 806.274 98.9103Z" fill="white" fill-opacity="0.01" stroke="#4D4D4D"/>
<path d="M915.009 39.6512L923.407 9.87525C924.068 7.53119 926.081 5.81936 928.5 5.54281L969.957 0.804904C973.643 0.383684 976.824 3.3745 976.63 7.07911L973.924 58.8809C973.713 62.9141 969.659 65.5915 965.867 64.2011L918.718 46.9132C915.774 45.8337 914.157 42.6692 915.009 39.6512Z" fill="white" fill-opacity="0.01" stroke="#4D4D4D"/>
<path d="M960.127 112.77L982.896 76.1073C984.971 72.7668 989.645 72.2917 992.349 75.1464L1026.86 111.574C1029.5 114.359 1028.88 118.871 1025.59 120.845L990.837 141.698C988.561 143.064 985.657 142.771 983.699 140.979L961.173 120.362C959.043 118.412 958.604 115.223 960.127 112.77Z" fill="white" fill-opacity="0.01" stroke="#4D4D4D"/>
<path d="M1172.49 115.462L1199.04 72.4173C1201.07 69.1339 1205.62 68.5875 1208.36 71.2983L1238.79 101.349C1241.31 103.841 1241.14 107.965 1238.41 110.232L1200.21 142C1197.82 143.983 1194.32 143.822 1192.13 141.63L1173.35 122.855C1171.39 120.888 1171.03 117.829 1172.49 115.462Z" fill="white" fill-opacity="0.01" stroke="#4D4D4D"/>
<path d="M1190.03 113.176L1125.6 153.612C1122.99 155.251 1122.05 158.603 1123.42 161.365L1158.41 231.777C1160.04 235.056 1164.2 236.124 1167.21 234.033L1259.63 169.775C1263 167.431 1263.08 162.468 1259.77 160.025L1196.79 113.434C1194.81 111.966 1192.12 111.863 1190.03 113.176Z" fill="white" fill-opacity="0.01" stroke="#4D4D4D"/>
<path d="M-3.50935 639.462L23.0417 596.417C25.0669 593.134 29.6198 592.587 32.3645 595.298L62.7913 625.349C65.3138 627.841 65.1375 631.965 62.4114 634.232L24.2086 666C21.8244 667.983 18.3222 667.822 16.1296 665.63L-2.64532 646.855C-4.61157 644.888 -4.96918 641.829 -3.50935 639.462Z" fill="white" fill-opacity="0.01" stroke="#4D4D4D"/>
<path d="M14.033 637.176L-50.3989 677.612C-53.0106 679.251 -53.9548 682.603 -52.5826 685.365L-17.5925 755.777C-15.9628 759.056 -11.8011 760.124 -8.79431 758.033L83.6315 693.775C87.0037 691.431 87.0766 686.468 83.7747 684.025L20.7907 637.434C18.8058 635.966 16.1242 635.863 14.033 637.176Z" fill="white" fill-opacity="0.01" stroke="#4D4D4D"/>
<path d="M1316.49 182.771L1325.03 160.364C1325.91 158.037 1328.15 156.5 1330.63 156.5H1374.2C1378.43 156.5 1381.33 160.756 1379.78 164.692L1364.33 204.071C1363.07 207.287 1359.36 208.775 1356.22 207.323L1319.58 190.352C1316.72 189.027 1315.37 185.716 1316.49 182.771Z" fill="white" fill-opacity="0.01" stroke="#4D4D4D"/>
<path d="M1279.43 4.91232L1262.25 37.3162C1260.72 40.1977 1261.77 43.7717 1264.62 45.3634L1300.46 65.401C1303.47 67.0834 1307.27 65.8902 1308.78 62.7909L1330.57 18.053C1332.3 14.499 1330.18 10.2718 1326.29 9.53214L1285.85 1.82854C1283.26 1.33599 1280.66 2.58651 1279.43 4.91232Z" fill="white" fill-opacity="0.01" stroke="#4D4D4D"/>
<path d="M1004.46 365.078L925.973 351.202C923.57 350.778 921.15 351.85 919.851 353.914L891.055 399.648C889.346 402.362 890.075 405.941 892.709 407.772L959.396 454.106C962.367 456.171 966.477 455.155 968.144 451.943L1008.74 373.751C1010.6 370.156 1008.44 365.783 1004.46 365.078Z" fill="white" fill-opacity="0.01" stroke="#4D4D4D"/>
<path d="M1038.78 392.835L955.761 374.919C953.22 374.371 950.615 375.521 949.309 377.768L925.575 418.572C924.092 421.123 924.683 424.373 926.969 426.238L993.308 480.357C996.249 482.756 1000.65 481.856 1002.41 478.496L1042.83 401.489C1044.68 397.975 1042.66 393.672 1038.78 392.835Z" fill="white" fill-opacity="0.01" stroke="#4D4D4D"/>
<path d="M868.267 213.325L830.439 239.573C827.713 241.465 823.969 240.785 822.082 238.055L804.081 212.01C802.803 210.162 802.665 207.754 803.724 205.772L821.894 171.752C823.728 168.317 828.298 167.512 831.195 170.114L868.855 203.931C871.737 206.519 871.449 211.117 868.267 213.325Z" fill="white" fill-opacity="0.01"/>
<path d="M696 453.5L731.02 401.431C732.719 398.905 736.04 398.051 738.747 399.445L767 414M803.724 205.772L821.894 171.752C823.728 168.317 828.298 167.512 831.195 170.114L868.855 203.931C871.737 206.519 871.449 211.117 868.267 213.325L830.439 239.573C827.713 241.465 823.969 240.785 822.082 238.055L804.081 212.01C802.803 210.162 802.665 207.754 803.724 205.772Z" stroke="#4D4D4D"/>
<path d="M928 390L948.949 364.594C950.493 362.721 953.013 361.963 955.334 362.674L976 369" stroke="#4D4D4D"/>
<path d="M1565.3 710.265L1544.12 787.099C1543.47 789.45 1544.31 791.96 1546.25 793.448L1589.08 826.409C1591.62 828.366 1595.25 827.976 1597.32 825.525L1649.71 763.482C1652.04 760.717 1651.42 756.531 1648.38 754.569L1574.34 706.817C1570.94 704.622 1566.38 706.36 1565.3 710.265Z" fill="white" fill-opacity="0.01" stroke="#4D4D4D"/>
<path d="M1596.16 678.692L1570.53 759.668C1569.75 762.146 1570.65 764.847 1572.76 766.359L1611.16 793.818C1613.56 795.534 1616.85 795.251 1618.92 793.15L1679.03 732.183C1681.69 729.481 1681.21 725.015 1678.03 722.943L1605.15 675.475C1601.83 673.31 1597.36 674.91 1596.16 678.692Z" fill="white" fill-opacity="0.01" stroke="#4D4D4D"/>
<path d="M1582.94 788.722L1559.61 765.481C1557.89 763.768 1557.37 761.187 1558.3 758.943L1566.54 738.963" stroke="#4D4D4D"/>
<path d="M179 460.5L199.215 433.694C200.856 431.517 203.758 430.721 206.281 431.754L232.5 442.5" stroke="#4D4D4D"/>
<path d="M169.502 502.345L198.806 456.903C200.132 454.846 202.574 453.801 204.977 454.261L287.066 469.981C291.018 470.737 293.119 475.092 291.253 478.657L248.302 560.692C246.577 563.988 242.299 564.936 239.343 562.676L170.901 510.364C168.415 508.464 167.807 504.974 169.502 502.345Z" fill="white" fill-opacity="0.01" stroke="#4D4D4D"/>
<path d="M179 460.5L199.215 433.694C200.856 431.517 203.758 430.721 206.281 431.754L232.5 442.5" stroke="#4D4D4D"/>
<path d="M290.048 608.56L295.165 584.438C295.67 582.056 297.565 580.215 299.961 579.78L343.102 571.936C347.045 571.219 350.57 574.496 350.14 578.482L344.847 627.633C344.422 631.584 340.343 634.037 336.653 632.561L293.689 615.376C290.979 614.292 289.442 611.415 290.048 608.56Z" fill="white" fill-opacity="0.01" stroke="#4D4D4D"/>
<path d="M64.7638 545.058L79.291 518.611C80.345 516.692 82.3605 515.5 84.5498 515.5H131.922C136.224 515.5 139.128 519.894 137.441 523.852L118.8 567.602C117.522 570.602 114.08 572.032 111.052 570.821L67.7943 553.518C64.4492 552.18 63.0292 548.216 64.7638 545.058Z" fill="white" fill-opacity="0.01" stroke="#4D4D4D"/>
<path d="M675.157 562.29L703.348 512.316C704.63 510.043 707.234 508.859 709.79 509.388L796.646 527.374C800.569 528.186 802.609 532.541 800.722 536.075L756.71 618.49C755.007 621.678 750.892 622.648 747.944 620.556L676.91 570.13C674.404 568.351 673.647 564.967 675.157 562.29Z" fill="white" fill-opacity="0.01" stroke="#4D4D4D"/>
<path d="M895.101 257.527L862.412 287.104C859.609 289.639 859.82 294.103 862.85 296.363L909.104 330.857C912.45 333.353 917.258 331.754 918.444 327.752L930.889 285.749C931.564 283.47 930.831 281.008 929.018 279.47L903.009 257.401C900.714 255.455 897.333 255.508 895.101 257.527Z" fill="white" fill-opacity="0.01" stroke="#4D4D4D"/>
<path d="M994.447 270.124L933.965 228.315C930.563 225.963 925.857 227.678 924.766 231.668L911.841 278.925C911.315 280.848 911.778 282.906 913.077 284.418L937.939 313.356C939.957 315.705 943.432 316.132 945.959 314.342L994.503 279.956C997.903 277.548 997.874 272.493 994.447 270.124Z" fill="white" fill-opacity="0.01" stroke="#4D4D4D"/>
<path d="M610.142 232.074L567.337 308.075C565.565 311.221 566.952 315.207 570.294 316.573L657.967 352.42C661.707 353.949 665.86 351.418 666.214 347.393L673.649 262.983C673.862 260.571 672.604 258.268 670.46 257.143L618.157 229.705C615.284 228.198 611.734 229.248 610.142 232.074Z" fill="white" fill-opacity="0.01" stroke="#4D4D4D"/>
<path d="M583.5 238L606.265 212.11C607.911 210.238 610.544 209.579 612.878 210.454L641 221" stroke="#4D4D4D"/>
<path d="M567.5 335L596.902 342.351C601.02 343.38 602.797 348.243 600.311 351.684L586 371.5" stroke="#4D4D4D"/>
<path d="M588.5 442.5V463C588.5 466.314 591.186 469 594.5 469H619" stroke="#4D4D4D"/>
<path d="M1069.26 449.149L1050.29 337.588C1049.64 333.736 1052.78 330.296 1056.67 330.601L1182.46 340.449C1186.15 340.738 1188.7 344.264 1187.82 347.858L1160.28 460.261C1159.55 463.24 1156.69 465.189 1153.65 464.779L1074.37 454.09C1071.77 453.739 1069.7 451.737 1069.26 449.149Z" fill="white" fill-opacity="0.01" stroke="#4D4D4D"/>
<path d="M1079.84 466.744L1110.35 415.598C1111.64 413.437 1114.14 412.31 1116.62 412.776L1200.02 428.497C1203.99 429.244 1206.1 433.613 1204.22 437.184L1159.69 521.925C1158 525.14 1153.87 526.128 1150.91 524.024L1081.51 474.709C1078.97 472.897 1078.24 469.43 1079.84 466.744Z" fill="white" fill-opacity="0.01" stroke="#4D4D4D"/>
<path d="M1039.41 209.319L993.082 221.197C990.172 221.943 987.158 220.422 986.03 217.638L973.877 187.635C972.79 184.95 973.776 181.872 976.221 180.318L1014.31 156.118C1017.34 154.192 1021.37 155.343 1022.93 158.578L1043.32 200.903C1044.97 204.315 1043.08 208.378 1039.41 209.319Z" fill="white" fill-opacity="0.01" stroke="#4D4D4D"/>
<path d="M1002.83 187.512L1045.71 182.055C1049.78 181.537 1053.16 185.169 1052.35 189.193L1043.32 233.96C1042.61 237.454 1039.04 239.567 1035.64 238.496L993.697 225.294C990.547 224.302 988.79 220.95 989.768 217.795L997.857 191.689C998.553 189.442 1000.5 187.809 1002.83 187.512Z" fill="white" fill-opacity="0.01" stroke="#4D4D4D"/>
<path d="M1202 14.5L1189.28 8.8898C1186.77 7.77901 1183.82 8.52343 1182.13 10.6957L1164 34" stroke="#4D4D4D"/>
<path d="M1244.5 275V296.334C1244.5 298.839 1246.06 301.08 1248.4 301.956L1274 311.5" stroke="#4D4D4D"/>
<path d="M1326.45 256.462L1292.95 289.18C1290.17 291.892 1290.66 296.487 1293.95 298.553L1333.69 323.536C1336.93 325.573 1341.23 324.095 1342.53 320.494L1357.93 277.835C1358.86 275.279 1357.95 272.421 1355.72 270.87L1334.07 255.828C1331.71 254.187 1328.51 254.453 1326.45 256.462Z" fill="white" fill-opacity="0.01" stroke="#4D4D4D"/>
<path d="M1298.1 312.898L1324.16 306.66C1326.96 305.987 1329.85 307.411 1331.03 310.048L1348.82 349.881C1350.43 353.477 1348.19 357.619 1344.3 358.25L1300.46 365.369C1296.81 365.962 1293.5 363.145 1293.5 359.447V318.733C1293.5 315.957 1295.4 313.544 1298.1 312.898Z" fill="white" fill-opacity="0.01" stroke="#4D4D4D"/>
<path d="M1374.39 200.242L1348.52 246.032C1347.07 248.605 1347.71 251.852 1350.02 253.686L1417.37 307.036C1420.3 309.361 1424.62 308.46 1426.38 305.158L1470.65 222.206C1472.56 218.633 1470.45 214.236 1466.47 213.485L1380.72 197.297C1378.2 196.821 1375.65 198.005 1374.39 200.242Z" fill="white" fill-opacity="0.01" stroke="#4D4D4D"/>
<path d="M1466 158.781V115.996C1466 113.101 1468.07 110.619 1470.91 110.095L1499.67 104.797C1502.25 104.323 1504.83 105.574 1506.06 107.888L1526.68 146.785C1528.57 150.363 1526.45 154.753 1522.47 155.494L1473.1 164.68C1469.41 165.366 1466 162.534 1466 158.781Z" fill="white" fill-opacity="0.01" stroke="#4D4D4D"/>
<path d="M1532.41 72.5473L1507.11 48.4031C1504.61 46.0159 1500.62 46.2307 1498.39 48.8722L1468.73 83.9946C1466.45 86.685 1466.98 90.7444 1469.86 92.7716L1507.6 119.345C1510.67 121.505 1514.94 120.35 1516.51 116.939L1533.72 79.3874C1534.78 77.061 1534.26 74.3144 1532.41 72.5473Z" fill="white" fill-opacity="0.01" stroke="#4D4D4D"/>
<path d="M1582.43 96.3542L1588.61 69.8026C1589.15 67.4907 1591 65.7136 1593.34 65.2694L1634.88 57.3567C1638.57 56.6524 1642 59.4869 1642 63.2507V106.321C1642 110.061 1638.62 112.89 1634.94 112.226L1587.21 103.62C1583.83 103.011 1581.65 99.6972 1582.43 96.3542Z" fill="white" fill-opacity="0.01" stroke="#4D4D4D"/>
<path d="M1656.99 84.2263L1613.46 76.3105C1610.82 75.8309 1608.18 77.1598 1607 79.5658L1596.19 101.551C1594.92 104.133 1595.66 107.253 1597.96 108.987L1636.53 138.114C1639.75 140.544 1644.4 139.172 1645.78 135.384L1661.56 92.1879C1662.83 88.6935 1660.66 84.8918 1656.99 84.2263Z" fill="white" fill-opacity="0.01" stroke="#4D4D4D"/>
<path d="M1629.73 99.6212L1657.67 54.7448C1659.06 52.5169 1661.73 51.4491 1664.27 52.1087L1742.99 72.5497C1746.79 73.5366 1748.63 77.8482 1746.72 81.2782L1703.07 159.597C1701.22 162.907 1696.81 163.699 1693.93 161.236L1630.92 107.352C1628.67 105.425 1628.16 102.139 1629.73 99.6212Z" fill="white" fill-opacity="0.01" stroke="#4D4D4D"/>
<path d="M1422 72V93.7319C1422 96.0356 1423.32 98.136 1425.39 99.1365L1450 111" stroke="#4D4D4D"/>
<path d="M1351 105L1363.82 80.2409C1364.85 78.25 1366.91 77 1369.15 77H1391.5" stroke="#4D4D4D"/>
<path d="M1064.5 271.983L1090.37 230.42C1091.66 228.351 1094.07 227.267 1096.47 227.675L1134.2 234.089C1138.26 234.78 1140.43 239.27 1138.45 242.886L1103.37 306.932C1101.44 310.455 1096.66 311.123 1093.84 308.264L1065.32 279.368C1063.37 277.393 1063.03 274.339 1064.5 271.983Z" fill="white" fill-opacity="0.01" stroke="#4D4D4D"/>
<path d="M1474.83 320.505L1482.85 296.448C1483.56 294.329 1485.38 292.777 1487.59 292.422L1534.72 284.833C1538.78 284.179 1542.28 287.711 1541.59 291.765L1533.22 340.854C1532.59 344.564 1528.73 346.782 1525.21 345.467L1478.43 328.024C1475.4 326.895 1473.81 323.57 1474.83 320.505Z" fill="white" fill-opacity="0.01" stroke="#4D4D4D"/>
<path d="M1522.82 340.714L1609.99 267.541C1613.02 265 1617.63 266.029 1619.3 269.614L1672.97 385.461C1674.55 388.863 1672.65 392.861 1669.02 393.794L1556.62 422.685C1553.69 423.437 1550.66 421.897 1549.55 419.09L1521.1 347.526C1520.15 345.123 1520.84 342.377 1522.82 340.714Z" fill="white" fill-opacity="0.01" stroke="#4D4D4D"/>
<path d="M1698.23 342.945L1704.55 316.919C1705.12 314.549 1707.08 312.763 1709.49 312.402L1756.64 305.329C1760.87 304.695 1764.38 308.55 1763.36 312.696L1751.15 362.301C1750.28 365.84 1746.48 367.791 1743.09 366.438L1701.83 349.932C1699.06 348.823 1697.52 345.846 1698.23 342.945Z" fill="white" fill-opacity="0.01" stroke="#4D4D4D"/>
<path d="M1377.02 529.243L1405.98 501.829C1408.04 499.887 1411.16 499.639 1413.5 501.234L1434.1 515.33C1436.39 516.896 1437.3 519.827 1436.32 522.418L1420.92 562.842C1419.47 566.634 1414.76 567.929 1411.58 565.407L1377.42 538.301C1374.56 536.031 1374.37 531.754 1377.02 529.243Z" fill="white" fill-opacity="0.01" stroke="#4D4D4D"/>
<path d="M1224.64 541.8L1247.12 497.619C1249.01 493.912 1254 493.203 1256.85 496.237L1297.84 539.96C1300.63 542.938 1299.7 547.775 1296 549.501L1254.51 568.862C1252.37 569.859 1249.85 569.512 1248.06 567.974L1226.07 549.072C1223.98 547.269 1223.38 544.265 1224.64 541.8Z" fill="white" fill-opacity="0.01" stroke="#4D4D4D"/>
<path d="M851.903 575.015L897.438 501.63C898.932 499.222 901.906 498.187 904.572 499.149L956.358 517.826C959.055 518.799 960.687 521.544 960.253 524.378L945.272 622.196C944.648 626.266 940.205 628.513 936.558 626.604L854.219 583.494C851.13 581.877 850.065 577.977 851.903 575.015Z" fill="white" fill-opacity="0.01" stroke="#4D4D4D"/>
<path d="M888.508 659.441L918.723 575.804C919.938 572.441 923.806 570.88 927.014 572.459L979.648 598.351C981.7 599.361 983 601.448 983 603.735V692.816C983 697.012 978.802 699.912 974.877 698.428L892.029 667.091C888.962 665.931 887.394 662.524 888.508 659.441Z" fill="white" fill-opacity="0.01" stroke="#4D4D4D"/>
<path d="M442.039 715.796L459.391 637.279C460.218 633.539 464.29 631.52 467.767 633.127L523.517 658.89C525.64 659.872 527 661.998 527 664.337V751.092C527 755.478 522.447 758.382 518.47 756.532L445.368 722.531C442.816 721.345 441.432 718.544 442.039 715.796Z" fill="white" fill-opacity="0.01" stroke="#4D4D4D"/>
<path d="M959.01 597.675L974.478 575.211C975.446 573.804 976.968 572.877 978.662 572.661L1020.62 567.321C1025.22 566.736 1028.71 571.362 1026.9 575.626L1007.44 621.276C1006.11 624.403 1002.44 625.799 999.368 624.353L961.4 606.508C958.048 604.933 956.91 600.726 959.01 597.675Z" fill="white" fill-opacity="0.01" stroke="#4D4D4D"/>
<path d="M826.583 655.399L810.888 619.033C809.571 615.981 810.986 612.44 814.043 611.136L839.09 600.454C841.18 599.563 843.594 599.929 845.326 601.399L878.267 629.36C881.626 632.212 880.868 637.59 876.852 639.403L834.56 658.491C831.504 659.87 827.911 658.477 826.583 655.399Z" fill="white" fill-opacity="0.01" stroke="#4D4D4D"/>
<path d="M332.613 749.262L304.147 773.718C301.693 775.827 301.353 779.502 303.379 782.025L350.509 840.724C352.762 843.53 356.96 843.735 359.477 841.163L415.167 784.226C418.234 781.09 417.009 775.83 412.873 774.372L338.518 748.154C336.493 747.44 334.241 747.862 332.613 749.262Z" fill="white" fill-opacity="0.01" stroke="#4D4D4D"/>
<path d="M337.74 780.551L304.919 798.75C302.089 800.319 301.013 803.85 302.488 806.731L336.783 873.743C338.422 876.946 342.493 877.996 345.477 875.985L411.524 831.477C415.162 829.026 415.026 823.627 411.269 821.363L343.747 780.66C341.908 779.551 339.617 779.51 337.74 780.551Z" fill="white" fill-opacity="0.01" stroke="#4D4D4D"/>
<path d="M742.5 768.5L756.562 747.407C758.24 744.889 761.531 744.016 764.238 745.369L776.5 751.5" stroke="#4D4D4D"/>
<path d="M838.029 774.082L848.332 744.317C849.294 741.54 852.127 739.867 855.024 740.368L897.709 747.741C901.466 748.39 903.673 752.332 902.262 755.873L884.219 801.174C882.814 804.7 878.53 806.053 875.355 803.972L840.41 781.063C838.111 779.556 837.13 776.68 838.029 774.082Z" fill="white" fill-opacity="0.01" stroke="#4D4D4D"/>
<path d="M744.526 855.302L750.045 827.338C750.6 824.527 753.066 822.5 755.932 822.5H798.681C802.467 822.5 805.307 825.964 804.565 829.677L796.329 870.855C795.623 874.387 791.985 876.505 788.565 875.376L748.532 862.161C745.657 861.212 743.94 858.271 744.526 855.302Z" fill="white" fill-opacity="0.01" stroke="#4D4D4D"/>
<path d="M524.147 833.811L532.393 805.325C533.064 803.007 535.058 801.317 537.455 801.035L584.51 795.499C588.64 795.013 592 798.774 591.053 802.824L579.958 850.265C579.169 853.641 575.69 855.647 572.373 854.64L528.167 841.22C525.026 840.267 523.234 836.965 524.147 833.811Z" fill="white" fill-opacity="0.01" stroke="#4D4D4D"/>
<path d="M522.199 840.492L531.933 832.19C533.527 830.83 535.715 830.4 537.705 831.056L570.473 841.855C574.397 843.148 575.871 847.927 573.356 851.205L554.882 875.287C552.602 878.26 548.184 878.439 545.671 875.659L521.642 849.081C519.374 846.573 519.626 842.687 522.199 840.492Z" fill="white" fill-opacity="0.01" stroke="#4D4D4D"/>
<path d="M133.965 752.446L151.261 722.964C152.338 721.128 154.308 720 156.436 720H196.12C200.621 720 203.52 724.773 201.444 728.767L175.983 777.761C174.373 780.858 170.469 781.933 167.5 780.096L135.982 760.584C133.212 758.869 132.316 755.257 133.965 752.446Z" fill="white" fill-opacity="0.01" stroke="#4D4D4D"/>
<path d="M49.6075 822.712L66.3724 788.42C68.1628 784.758 73.0058 783.909 75.9352 786.744L111.026 820.703C113.816 823.402 113.346 828.001 110.068 830.081L74.6979 852.52C72.0479 854.201 68.5501 853.556 66.674 851.04L50.1881 828.934C48.8445 827.132 48.6204 824.731 49.6075 822.712Z" fill="white" fill-opacity="0.01" stroke="#4D4D4D"/>
<path d="M1023.02 767.171L990.185 795.955C987.445 798.357 987.46 802.626 990.217 805.008L1043.39 850.95C1045.72 852.965 1049.2 852.885 1051.44 850.765L1106.92 798.185C1110.28 795 1108.92 789.369 1104.47 788.071L1028.66 765.923C1026.69 765.348 1024.57 765.819 1023.02 767.171Z" fill="white" fill-opacity="0.01" stroke="#4D4D4D"/>
<path d="M1096.26 846.651L1031.85 882.984C1028.91 884.638 1025.19 883.555 1023.61 880.585L990.431 818.486C988.829 815.489 990.035 811.761 993.088 810.268L1029.3 792.564C1031.27 791.6 1033.61 791.789 1035.41 793.058L1096.78 836.529C1100.37 839.072 1100.09 844.488 1096.26 846.651Z" fill="white" fill-opacity="0.01" stroke="#4D4D4D"/>
<path d="M1120.5 1300.5L1100.71 1327.04C1099.36 1328.85 1097.09 1329.75 1094.86 1329.36L1056 1322.5" stroke="#4D4D4D"/>
<path d="M925 1311.5L907.913 1339.1C906.489 1341.4 903.699 1342.47 901.104 1341.7L873.5 1333.5" stroke="#4D4D4D"/>
<path d="M276 1407L259.414 1375.53C257.824 1372.51 254.044 1371.43 251.095 1373.14L216 1393.5" stroke="#4D4D4D"/>
<path d="M579 1312.5L557.584 1349.45C555.557 1352.95 550.72 1353.48 547.981 1350.51L530 1331" stroke="#4D4D4D"/>
<path d="M421.5 1317.5L392.658 1338.91C390.269 1340.69 386.942 1340.44 384.838 1338.34L375 1328.5" stroke="#4D4D4D"/>
<path d="M398.15 1169.7L369.586 1226.83C368.359 1229.28 365.624 1230.59 362.943 1230.01L279.019 1211.75C275.051 1210.88 273.069 1206.41 275.096 1202.89L322.778 1120.09C324.518 1117.07 328.458 1116.17 331.344 1118.12L396.15 1162.05C398.64 1163.74 399.495 1167.01 398.15 1169.7Z" fill="white" fill-opacity="0.01" stroke="#4D4D4D"/>
<path d="M300.1 1096.17L362.75 1148.37C364.934 1150.2 365.541 1153.3 364.203 1155.81L340.585 1200.09C339.346 1202.41 336.736 1203.66 334.15 1203.16L251.071 1187.06C247.08 1186.29 244.997 1181.86 246.95 1178.29L290.997 1097.89C292.812 1094.58 297.199 1093.75 300.1 1096.17Z" fill="white" fill-opacity="0.01" stroke="#4D4D4D"/>
<path d="M164.325 1229.28L136.16 1279.64C134.876 1281.93 132.246 1283.13 129.673 1282.58L50.5601 1265.72C46.5783 1264.87 44.5797 1260.39 46.6102 1256.86L90.7633 1180.13C92.5083 1177.09 96.4676 1176.19 99.3543 1178.17L162.479 1221.4C165.039 1223.16 165.84 1226.57 164.325 1229.28Z" fill="white" fill-opacity="0.01" stroke="#4D4D4D"/>
<path d="M2.72039 1274.31L21.3921 1228.41C22.7683 1225.03 26.8226 1223.65 29.9763 1225.49L70.0914 1248.92C72.6327 1250.41 73.7221 1253.52 72.6633 1256.26L60.3275 1288.26C59.2728 1291 56.3956 1292.57 53.5235 1291.98L7.0725 1282.45C3.39549 1281.7 1.30605 1277.79 2.72039 1274.31Z" fill="white" fill-opacity="0.01" stroke="#4D4D4D"/>
<path d="M592.5 1119.5L554.895 1175.21C553.231 1177.68 550.015 1178.55 547.333 1177.27L506 1157.5" stroke="#4D4D4D"/>
<path d="M606.706 1030.42L574.203 1087.62C572.895 1089.92 570.233 1091.1 567.651 1090.51L487.908 1072.31C483.976 1071.41 482.031 1066.96 484.04 1063.47L530.845 981.993C532.559 979.009 536.427 978.075 539.314 979.949L604.755 1022.42C607.42 1024.15 608.275 1027.66 606.706 1030.42Z" fill="white" fill-opacity="0.01" stroke="#4D4D4D"/>
<path d="M575.037 1017.55L545.723 1062.58C544.381 1064.65 541.917 1065.68 539.506 1065.19L459.833 1049.08C455.915 1048.29 453.853 1043.96 455.707 1040.42L498.617 958.462C500.369 955.115 504.742 954.201 507.688 956.565L573.764 1009.6C576.168 1011.53 576.719 1014.97 575.037 1017.55Z" fill="white" fill-opacity="0.01" stroke="#4D4D4D"/>
<path d="M484.433 925.874L465.064 1010.83C464.441 1013.56 462.014 1015.5 459.214 1015.5L411.466 1015.5C408.816 1015.5 406.479 1013.76 405.719 1011.22L378.473 920.257C377.274 916.254 380.432 912.282 384.602 912.547L478.964 918.552C482.653 918.787 485.255 922.27 484.433 925.874Z" fill="white" fill-opacity="0.01" stroke="#4D4D4D"/>
<path d="M347.552 1034.6L360.723 1022.07C363.096 1019.81 363.22 1016.07 361.002 1013.66L340.304 991.175C337.968 988.638 333.979 988.588 331.579 991.065L311.193 1012.12C308.373 1015.03 309.194 1019.85 312.821 1021.66L340.733 1035.62C342.994 1036.75 345.72 1036.34 347.552 1034.6Z" fill="white" fill-opacity="0.01" stroke="#4D4D4D"/>
<path d="M281.201 952.495L252.64 978.426C249.614 981.172 244.788 980.158 243.126 976.425L225.028 935.798C223.471 932.302 225.539 928.263 229.285 927.482L265.383 919.962C268.092 919.397 270.837 920.76 272.025 923.26L282.587 945.476C283.723 947.865 283.16 950.717 281.201 952.495Z" fill="white" fill-opacity="0.01" stroke="#4D4D4D"/>
<path d="M68.9677 1099.32L100.262 1066.82C101.66 1065.37 102.236 1063.32 101.796 1061.35L95.5964 1033.64C94.7703 1029.94 90.7732 1027.93 87.3126 1029.46L39.1754 1050.77C35.8892 1052.22 34.61 1056.22 36.4413 1059.31L59.4832 1098.22C61.5034 1101.63 66.2178 1102.18 68.9677 1099.32Z" fill="white" fill-opacity="0.01" stroke="#4D4D4D"/>
<path d="M1448.13 1172.83L1470.25 1132.13C1471.57 1129.71 1471.06 1126.69 1469.02 1124.83L1447.98 1105.67C1445.94 1103.81 1442.89 1103.59 1440.59 1105.13L1401.88 1131.2C1398.64 1133.38 1398.32 1138.03 1401.23 1140.64L1438.85 1174.42C1441.73 1177.01 1446.28 1176.23 1448.13 1172.83Z" fill="white" fill-opacity="0.01" stroke="#4D4D4D"/>
<path d="M1637.68 1155.66L1619.57 1183.79C1618.31 1185.75 1616.02 1186.8 1613.71 1186.49L1574.65 1181.18C1570.48 1180.61 1568.18 1176.04 1570.2 1172.34L1593.97 1129.02C1595.62 1126.02 1599.45 1125 1602.37 1126.79L1635.77 1147.29C1638.64 1149.05 1639.5 1152.83 1637.68 1155.66Z" fill="white" fill-opacity="0.01" stroke="#4D4D4D"/>
<path d="M1194.69 1093.88L1208.27 1124.15C1209.31 1126.46 1208.79 1129.17 1206.96 1130.93L1174.06 1162.65C1171.09 1165.52 1166.19 1164.6 1164.46 1160.86L1141.87 1112.18C1140.35 1108.9 1142.05 1105.03 1145.49 1103.94L1187.4 1090.62C1190.31 1089.7 1193.44 1091.1 1194.69 1093.88Z" fill="white" fill-opacity="0.01" stroke="#4D4D4D"/>
<path d="M1189.94 1084.58L1192.56 1117.65C1192.76 1120.17 1191.36 1122.55 1189.05 1123.59L1147.4 1142.42C1143.64 1144.12 1139.33 1141.61 1138.96 1137.5L1134.04 1084.06C1133.71 1080.46 1136.61 1077.39 1140.23 1077.51L1184.17 1079.05C1187.22 1079.16 1189.7 1081.54 1189.94 1084.58Z" fill="white" fill-opacity="0.01" stroke="#4D4D4D"/>
<path d="M1744.23 1692.71L1772.57 1660.1C1774.93 1657.38 1774.39 1653.22 1771.42 1651.2L1736.33 1627.31C1733.11 1625.12 1728.69 1626.52 1727.33 1630.17L1712.54 1669.88C1711.62 1672.33 1712.4 1675.09 1714.47 1676.7L1736.01 1693.5C1738.53 1695.46 1742.14 1695.11 1744.23 1692.71Z" fill="white" fill-opacity="0.01" stroke="#4D4D4D"/>
<path d="M1526.07 1625.73L1601.86 1643.05C1604.34 1643.62 1606.91 1642.56 1608.27 1640.41L1634.16 1599.48C1635.78 1596.92 1635.24 1593.56 1632.9 1591.64L1570.22 1540.19C1567.27 1537.77 1562.85 1538.68 1561.09 1542.06L1522.08 1617.11C1520.27 1620.6 1522.24 1624.85 1526.07 1625.73Z" fill="white" fill-opacity="0.01" stroke="#4D4D4D"/>
<path d="M1498.63 1649.95L1505.65 1686.88C1506.35 1690.58 1503.52 1694 1499.75 1694L1479.23 1694C1477.5 1694 1475.85 1693.25 1474.71 1691.94L1449.3 1662.8C1446.27 1659.32 1448.13 1653.87 1452.64 1652.97L1491.56 1645.19C1494.83 1644.53 1498.01 1646.67 1498.63 1649.95Z" fill="white" fill-opacity="0.01" stroke="#4D4D4D"/>
<path d="M1417.5 1779.32L1417.5 1815C1417.5 1818.31 1414.81 1821 1411.5 1821L1382.69 1821C1380.43 1821 1378.36 1819.73 1377.33 1817.71L1363.57 1790.55C1361.78 1787.01 1363.85 1782.73 1367.75 1781.95L1410.32 1773.44C1414.04 1772.69 1417.5 1775.53 1417.5 1779.32Z" fill="white" fill-opacity="0.01" stroke="#4D4D4D"/>
<path d="M1259.84 1711.89L1277.94 1752.61C1279.5 1756.13 1283.94 1757.28 1287.03 1754.96L1321.9 1728.71C1324.03 1727.11 1324.85 1724.28 1323.9 1721.79L1313.93 1695.59C1312.84 1692.7 1309.73 1691.12 1306.75 1691.93L1263.74 1703.66C1260.2 1704.63 1258.35 1708.53 1259.84 1711.89Z" fill="white" fill-opacity="0.01" stroke="#4D4D4D"/>
<path d="M1308.36 1694.89L1300.6 1720.37C1299.93 1722.59 1298.04 1724.22 1295.75 1724.56L1251.37 1731.18C1247.14 1731.81 1243.63 1727.95 1244.66 1723.8L1256.38 1676.54C1257.24 1673.06 1260.95 1671.11 1264.31 1672.37L1304.73 1687.52C1307.69 1688.63 1309.28 1691.86 1308.36 1694.89Z" fill="white" fill-opacity="0.01" stroke="#4D4D4D"/>
<path d="M1211.25 1644.62L1258.52 1660.64C1261.58 1661.68 1263.27 1664.95 1262.35 1668.04L1255.16 1692.13C1254.46 1694.47 1252.41 1696.15 1249.98 1696.38L1199.32 1701.21C1195.24 1701.6 1191.97 1697.86 1192.92 1693.86L1203.49 1648.93C1204.3 1645.48 1207.9 1643.48 1211.25 1644.62Z" fill="white" fill-opacity="0.01" stroke="#4D4D4D"/>
<path d="M1761 1550.13L1761 1631.5C1761 1634.81 1758.31 1637.5 1755 1637.5L1699.02 1637.5C1696.59 1637.5 1694.4 1636.03 1693.47 1633.78L1663.56 1560.95C1662.03 1557.24 1664.52 1553.1 1668.52 1552.7L1754.41 1544.16C1757.94 1543.8 1761 1546.58 1761 1550.13Z" fill="white" fill-opacity="0.01" stroke="#4D4D4D"/>
<path d="M1483.12 1558.04L1565.07 1574.61C1567.69 1575.14 1570.35 1573.87 1571.58 1571.49L1592.79 1530.74C1594.08 1528.26 1593.49 1525.21 1591.36 1523.4L1526.88 1468.51C1523.9 1465.97 1519.33 1466.92 1517.6 1470.44L1478.91 1549.52C1477.19 1553.05 1479.26 1557.26 1483.12 1558.04Z" fill="white" fill-opacity="0.01" stroke="#4D4D4D"/>
<path d="M1395.58 1566.85L1384.13 1579.58C1382.53 1581.35 1380.04 1582.01 1377.77 1581.26L1348.79 1571.6C1344.54 1570.18 1343.29 1564.77 1346.48 1561.63L1367.87 1540.56C1370.18 1538.3 1373.86 1538.26 1376.21 1540.48L1395.25 1558.48C1397.61 1560.72 1397.76 1564.43 1395.58 1566.85Z" fill="white" fill-opacity="0.01" stroke="#4D4D4D"/>
<path d="M1180.5 1641.5L1163.38 1664.18C1161.7 1666.41 1158.69 1667.18 1156.13 1666.03L1140.5 1659" stroke="#4D4D4D"/>
<path d="M1631.63 1462.65L1605.49 1487.66C1603.45 1489.61 1600.33 1489.88 1597.99 1488.31L1575.63 1473.27C1573.23 1471.66 1572.32 1468.58 1573.46 1465.93L1589.34 1428.88C1590.92 1425.2 1595.6 1424.07 1598.68 1426.63L1631.32 1453.7C1634.08 1455.99 1634.23 1460.18 1631.63 1462.65Z" fill="white" fill-opacity="0.01" stroke="#4D4D4D"/>
<path d="M1801.18 1487.25L1790.2 1505.79C1788.89 1508 1786.3 1509.13 1783.78 1508.59L1749.42 1501.2C1745.48 1500.36 1743.48 1495.94 1745.44 1492.42L1762.74 1461.35C1764.48 1458.23 1768.55 1457.31 1771.46 1459.38L1799.5 1479.3C1802.04 1481.11 1802.78 1484.57 1801.18 1487.25Z" fill="white" fill-opacity="0.01" stroke="#4D4D4D"/>
<path d="M1633.5 1318.66L1604.19 1364.1C1602.87 1366.15 1600.43 1367.2 1598.02 1366.74L1515.93 1351.02C1511.98 1350.26 1509.88 1345.91 1511.75 1342.34L1554.7 1260.31C1556.42 1257.01 1560.7 1256.06 1563.66 1258.32L1632.1 1310.64C1634.58 1312.54 1635.19 1316.03 1633.5 1318.66Z" fill="white" fill-opacity="0.01" stroke="#4D4D4D"/>
<path d="M1424.26 1460L1442.74 1448.62C1445.2 1447.1 1446.23 1444.04 1445.18 1441.33L1430.05 1402.54C1428.71 1399.11 1424.62 1397.68 1421.44 1399.54L1379.34 1424.13C1375.5 1426.37 1375.35 1431.87 1379.06 1434.32L1417.81 1459.89C1419.75 1461.18 1422.27 1461.22 1424.26 1460Z" fill="white" fill-opacity="0.01" stroke="#4D4D4D"/>
<path d="M1279.78 1353.19L1345.1 1460.11C1347.1 1463.39 1351.62 1463.96 1354.39 1461.29L1435.26 1383.13C1437.18 1381.28 1437.64 1378.38 1436.39 1376.01L1399.47 1306.17C1398.06 1303.5 1394.88 1302.3 1392.05 1303.36L1282.79 1344.45C1279.27 1345.77 1277.82 1349.98 1279.78 1353.19Z" fill="white" fill-opacity="0.01" stroke="#4D4D4D"/>
<path d="M1442 1364L1383.51 1364C1381.08 1364 1378.89 1362.54 1377.96 1360.3L1347.04 1285.81C1345.51 1282.14 1347.91 1278.03 1351.86 1277.56L1441.28 1266.81C1444.86 1266.38 1448 1269.17 1448 1272.76L1448 1358C1448 1361.31 1445.31 1364 1442 1364Z" fill="white" fill-opacity="0.01" stroke="#4D4D4D"/>
<path d="M1257.36 1247.08L1276.64 1236.06C1279.58 1234.38 1280.55 1230.62 1278.79 1227.73L1257.18 1192.23C1255.44 1189.36 1251.67 1188.49 1248.83 1190.29L1215.94 1211.26C1212.37 1213.54 1212.21 1218.69 1215.64 1221.18L1250.86 1246.73C1252.77 1248.11 1255.32 1248.25 1257.36 1247.08Z" fill="white" fill-opacity="0.01" stroke="#4D4D4D"/>
<path d="M1111.06 1485.7L1162.75 1507.31C1165.7 1508.54 1169.09 1507.25 1170.47 1504.38L1207.08 1428.56C1208.63 1425.33 1207.03 1421.46 1203.65 1420.28L1122.76 1392.04C1119.08 1390.75 1115.16 1393.27 1114.81 1397.16L1107.39 1479.62C1107.16 1482.23 1108.64 1484.69 1111.06 1485.7Z" fill="white" fill-opacity="0.01" stroke="#4D4D4D"/>
<path d="M1154.43 1424L1183.76 1424C1186.76 1424 1189.3 1421.78 1189.71 1418.81L1195.57 1375.81C1196.06 1372.21 1193.26 1369 1189.63 1369L1141.13 1369C1137.09 1369 1134.21 1372.91 1135.4 1376.77L1148.69 1419.77C1149.47 1422.29 1151.79 1424 1154.43 1424Z" fill="white" fill-opacity="0.01" stroke="#4D4D4D"/>
<path d="M1024 1494.14L1008.76 1518.67C1007.67 1520.43 1005.74 1521.5 1003.66 1521.5L959.946 1521.5C955.55 1521.5 952.646 1516.93 954.515 1512.95L974.907 1469.52C976.332 1466.49 979.968 1465.21 982.978 1466.68L1021.54 1485.58C1024.73 1487.14 1025.87 1491.12 1024 1494.14Z" fill="white" fill-opacity="0.01" stroke="#4D4D4D"/>
<path d="M1078.79 1644.83L1064.72 1669.93C1063.66 1671.83 1061.66 1673 1059.49 1673L1016.34 1673C1011.97 1673 1009.06 1668.48 1010.88 1664.51L1033.07 1615.92C1034.6 1612.56 1038.79 1611.37 1041.87 1613.43L1076.9 1636.92C1079.5 1638.66 1080.32 1642.1 1078.79 1644.83Z" fill="white" fill-opacity="0.01" stroke="#4D4D4D"/>
<path d="M1014.76 1703.84L1019.69 1744.78C1020.12 1748.36 1017.33 1751.5 1013.73 1751.5L986.69 1751.5C984.696 1751.5 982.831 1750.51 981.716 1748.85L959.619 1716.09C957.203 1712.51 959.253 1707.62 963.503 1706.84L1007.72 1698.66C1011.12 1698.03 1014.35 1700.41 1014.76 1703.84Z" fill="white" fill-opacity="0.01" stroke="#4D4D4D"/>
<path d="M996.726 1722.09L969.599 1757.2C967.413 1760.02 963.251 1760.33 960.681 1757.84L925.246 1723.57C922.529 1720.95 922.889 1716.49 925.992 1714.33L967.716 1685.33C970.381 1683.47 974.035 1684.08 975.965 1686.68L996.802 1714.85C998.398 1717.01 998.367 1719.97 996.726 1722.09Z" fill="white" fill-opacity="0.01" stroke="#4D4D4D"/>
<path d="M887.991 1781.35L879.593 1811.12C878.932 1813.47 876.919 1815.18 874.5 1815.46L833.043 1820.2C829.357 1820.62 826.176 1817.63 826.37 1813.92L829.076 1762.12C829.287 1758.09 833.341 1755.41 837.133 1756.8L884.282 1774.09C887.226 1775.17 888.843 1778.33 887.991 1781.35Z" fill="white" fill-opacity="0.01" stroke="#4D4D4D"/>
<path d="M842.873 1708.23L820.104 1744.89C818.029 1748.23 813.355 1748.71 810.651 1745.85L776.14 1709.43C773.502 1706.64 774.119 1702.13 777.409 1700.15L812.163 1679.3C814.439 1677.94 817.343 1678.23 819.301 1680.02L841.827 1700.64C843.957 1702.59 844.396 1705.78 842.873 1708.23Z" fill="white" fill-opacity="0.01" stroke="#4D4D4D"/>
<path d="M630.509 1705.54L603.958 1748.58C601.933 1751.87 597.38 1752.41 594.635 1749.7L564.209 1719.65C561.686 1717.16 561.863 1713.04 564.589 1710.77L602.791 1679C605.176 1677.02 608.678 1677.18 610.87 1679.37L629.645 1698.15C631.612 1700.11 631.969 1703.17 630.509 1705.54Z" fill="white" fill-opacity="0.01" stroke="#4D4D4D"/>
<path d="M612.967 1707.82L677.399 1667.39C680.011 1665.75 680.955 1662.4 679.583 1659.64L644.592 1589.22C642.963 1585.94 638.801 1584.88 635.794 1586.97L543.368 1651.22C539.996 1653.57 539.923 1658.53 543.225 1660.97L606.209 1707.57C608.194 1709.03 610.876 1709.14 612.967 1707.82Z" fill="white" fill-opacity="0.01" stroke="#4D4D4D"/>
<path d="M1806.51 1181.54L1779.96 1224.58C1777.93 1227.87 1773.38 1228.41 1770.64 1225.7L1740.21 1195.65C1737.69 1193.16 1737.86 1189.04 1740.59 1186.77L1778.79 1155C1781.18 1153.02 1784.68 1153.18 1786.87 1155.37L1805.65 1174.15C1807.61 1176.11 1807.97 1179.17 1806.51 1181.54Z" fill="white" fill-opacity="0.01" stroke="#4D4D4D"/>
<path d="M1788.97 1183.82L1853.4 1143.39C1856.01 1141.75 1856.95 1138.4 1855.58 1135.64L1820.59 1065.22C1818.96 1061.94 1814.8 1060.88 1811.79 1062.97L1719.37 1127.22C1716 1129.57 1715.92 1134.53 1719.23 1136.97L1782.21 1183.57C1784.19 1185.03 1786.88 1185.14 1788.97 1183.82Z" fill="white" fill-opacity="0.01" stroke="#4D4D4D"/>
<path d="M486.508 1638.23L477.972 1660.64C477.086 1662.96 474.855 1664.5 472.365 1664.5L428.801 1664.5C424.573 1664.5 421.671 1660.24 423.216 1656.31L438.673 1616.93C439.935 1613.71 443.645 1612.23 446.78 1613.68L483.423 1630.65C486.282 1631.97 487.63 1635.28 486.508 1638.23Z" fill="white" fill-opacity="0.01" stroke="#4D4D4D"/>
<path d="M523.574 1816.09L540.752 1783.68C542.28 1780.8 541.226 1777.23 538.379 1775.64L502.543 1755.6C499.534 1753.92 495.729 1755.11 494.22 1758.21L472.435 1802.95C470.704 1806.5 472.823 1810.73 476.706 1811.47L517.15 1819.17C519.736 1819.66 522.341 1818.41 523.574 1816.09Z" fill="white" fill-opacity="0.01" stroke="#4D4D4D"/>
<path d="M798.545 1455.92L877.027 1469.8C879.43 1470.22 881.85 1469.15 883.149 1467.09L911.945 1421.35C913.654 1418.64 912.926 1415.06 910.291 1413.23L843.604 1366.89C840.633 1364.83 836.523 1365.85 834.856 1369.06L794.264 1447.25C792.398 1450.84 794.556 1455.22 798.545 1455.92Z" fill="white" fill-opacity="0.01" stroke="#4D4D4D"/>
<path d="M764.215 1428.16L847.239 1446.08C849.78 1446.63 852.385 1445.48 853.691 1443.23L877.425 1402.43C878.908 1399.88 878.317 1396.63 876.031 1394.76L809.692 1340.64C806.751 1338.24 802.35 1339.14 800.586 1342.5L760.168 1419.51C758.324 1423.02 760.337 1427.33 764.215 1428.16Z" fill="white" fill-opacity="0.01" stroke="#4D4D4D"/>
<path d="M934.733 1607.67L972.561 1581.43C975.287 1579.54 979.031 1580.22 980.918 1582.94L998.919 1608.99C1000.2 1610.84 1000.33 1613.25 999.276 1615.23L981.106 1649.25C979.272 1652.68 974.702 1653.49 971.805 1650.89L934.145 1617.07C931.263 1614.48 931.551 1609.88 934.733 1607.67Z" fill="white" fill-opacity="0.01"/>
<path d="M1107 1367.5L1071.98 1419.57C1070.28 1422.1 1066.96 1422.95 1064.25 1421.55L1036 1407M999.276 1615.23L981.106 1649.25C979.272 1652.68 974.702 1653.49 971.805 1650.89L934.145 1617.07C931.263 1614.48 931.551 1609.88 934.733 1607.67L972.561 1581.43C975.287 1579.54 979.031 1580.22 980.918 1582.94L998.919 1608.99C1000.2 1610.84 1000.33 1613.25 999.276 1615.23Z" stroke="#4D4D4D"/>
<path d="M875 1431L854.051 1456.41C852.507 1458.28 849.987 1459.04 847.666 1458.33L827 1452" stroke="#4D4D4D"/>
<path d="M237.698 1110.74L258.879 1033.9C259.527 1031.55 258.687 1029.04 256.754 1027.55L213.925 994.591C211.382 992.634 207.751 993.024 205.681 995.475L153.292 1057.52C150.957 1060.28 151.583 1064.47 154.624 1066.43L228.661 1114.18C232.065 1116.38 236.621 1114.64 237.698 1110.74Z" fill="white" fill-opacity="0.01" stroke="#4D4D4D"/>
<path d="M206.84 1142.31L232.47 1061.33C233.254 1058.85 232.354 1056.15 230.24 1054.64L191.843 1027.18C189.443 1025.47 186.152 1025.75 184.081 1027.85L123.974 1088.82C121.309 1091.52 121.792 1095.99 124.972 1098.06L197.845 1145.52C201.17 1147.69 205.643 1146.09 206.84 1142.31Z" fill="white" fill-opacity="0.01" stroke="#4D4D4D"/>
<path d="M220.062 1032.28L243.389 1055.52C245.109 1057.23 245.627 1059.81 244.702 1062.06L236.464 1082.04" stroke="#4D4D4D"/>
<path d="M1624 1360.5L1603.79 1387.31C1602.14 1389.48 1599.24 1390.28 1596.72 1389.25L1570.5 1378.5" stroke="#4D4D4D"/>
<path d="M1633.5 1318.66L1604.19 1364.1C1602.87 1366.15 1600.43 1367.2 1598.02 1366.74L1515.93 1351.02C1511.98 1350.26 1509.88 1345.91 1511.75 1342.34L1554.7 1260.31C1556.42 1257.01 1560.7 1256.06 1563.66 1258.32L1632.1 1310.64C1634.58 1312.54 1635.19 1316.03 1633.5 1318.66Z" fill="white" fill-opacity="0.01" stroke="#4D4D4D"/>
<path d="M1624 1360.5L1603.79 1387.31C1602.14 1389.48 1599.24 1390.28 1596.72 1389.25L1570.5 1378.5" stroke="#4D4D4D"/>
<path d="M1512.95 1212.44L1507.84 1236.56C1507.33 1238.94 1505.44 1240.78 1503.04 1241.22L1459.9 1249.06C1455.95 1249.78 1452.43 1246.5 1452.86 1242.52L1458.15 1193.37C1458.58 1189.42 1462.66 1186.96 1466.35 1188.44L1509.31 1205.62C1512.02 1206.71 1513.56 1209.59 1512.95 1212.44Z" fill="white" fill-opacity="0.01" stroke="#4D4D4D"/>
<path d="M1738.24 1275.94L1723.71 1302.39C1722.66 1304.31 1720.64 1305.5 1718.45 1305.5L1671.08 1305.5C1666.78 1305.5 1663.87 1301.11 1665.56 1297.15L1684.2 1253.4C1685.48 1250.4 1688.92 1248.97 1691.95 1250.18L1735.21 1267.48C1738.55 1268.82 1739.97 1272.78 1738.24 1275.94Z" fill="white" fill-opacity="0.01" stroke="#4D4D4D"/>
<path d="M1127.84 1258.71L1099.65 1308.68C1098.37 1310.96 1095.77 1312.14 1093.21 1311.61L1006.35 1293.63C1002.43 1292.81 1000.39 1288.46 1002.28 1284.92L1046.29 1202.51C1047.99 1199.32 1052.11 1198.35 1055.06 1200.44L1126.09 1250.87C1128.6 1252.65 1129.35 1256.03 1127.84 1258.71Z" fill="white" fill-opacity="0.01" stroke="#4D4D4D"/>
<path d="M907.899 1563.47L940.588 1533.9C943.391 1531.36 943.18 1526.9 940.15 1524.64L893.896 1490.14C890.55 1487.65 885.742 1489.25 884.556 1493.25L872.111 1535.25C871.436 1537.53 872.169 1539.99 873.982 1541.53L899.991 1563.6C902.286 1565.55 905.667 1565.49 907.899 1563.47Z" fill="white" fill-opacity="0.01" stroke="#4D4D4D"/>
<path d="M808.553 1550.88L869.035 1592.69C872.437 1595.04 877.143 1593.32 878.234 1589.33L891.159 1542.07C891.685 1540.15 891.222 1538.09 889.923 1536.58L865.061 1507.64C863.043 1505.3 859.568 1504.87 857.041 1506.66L808.497 1541.04C805.097 1543.45 805.126 1548.51 808.553 1550.88Z" fill="white" fill-opacity="0.01" stroke="#4D4D4D"/>
<path d="M1192.86 1588.93L1235.66 1512.92C1237.43 1509.78 1236.05 1505.79 1232.71 1504.43L1145.03 1468.58C1141.29 1467.05 1137.14 1469.58 1136.79 1473.61L1129.35 1558.02C1129.14 1560.43 1130.4 1562.73 1132.54 1563.86L1184.84 1591.29C1187.72 1592.8 1191.27 1591.75 1192.86 1588.93Z" fill="white" fill-opacity="0.01" stroke="#4D4D4D"/>
<path d="M1219.5 1583L1196.73 1608.89C1195.09 1610.76 1192.46 1611.42 1190.12 1610.55L1162 1600" stroke="#4D4D4D"/>
<path d="M1235.5 1486L1206.1 1478.65C1201.98 1477.62 1200.2 1472.76 1202.69 1469.32L1217 1449.5" stroke="#4D4D4D"/>
<path d="M1214.5 1378.5L1214.5 1358C1214.5 1354.69 1211.81 1352 1208.5 1352L1184 1352" stroke="#4D4D4D"/>
<path d="M733.74 1371.85L752.71 1483.41C753.365 1487.26 750.222 1490.7 746.326 1490.4L620.539 1480.55C616.85 1480.26 614.3 1476.74 615.18 1473.14L642.716 1360.74C643.446 1357.76 646.306 1355.81 649.346 1356.22L728.626 1366.91C731.228 1367.26 733.3 1369.26 733.74 1371.85Z" fill="white" fill-opacity="0.01" stroke="#4D4D4D"/>
<path d="M723.162 1354.26L692.647 1405.4C691.357 1407.56 688.856 1408.69 686.383 1408.22L602.975 1392.5C599.011 1391.76 596.899 1387.39 598.775 1383.82L643.307 1299.08C644.997 1295.86 649.134 1294.87 652.094 1296.98L721.485 1346.29C724.035 1348.1 724.765 1351.57 723.162 1354.26Z" fill="white" fill-opacity="0.01" stroke="#4D4D4D"/>
<path d="M763.594 1611.68L809.918 1599.8C812.828 1599.06 815.842 1600.58 816.97 1603.36L829.123 1633.37C830.21 1636.05 829.224 1639.13 826.779 1640.68L788.695 1664.88C785.663 1666.81 781.63 1665.66 780.071 1662.42L759.679 1620.1C758.035 1616.69 759.925 1612.62 763.594 1611.68Z" fill="white" fill-opacity="0.01" stroke="#4D4D4D"/>
<path d="M800.169 1633.49L757.292 1638.94C753.219 1639.46 749.841 1635.83 750.652 1631.81L759.681 1587.04C760.386 1583.55 763.964 1581.43 767.364 1582.5L809.303 1595.71C812.453 1596.7 814.21 1600.05 813.232 1603.21L805.143 1629.31C804.447 1631.56 802.502 1633.19 800.169 1633.49Z" fill="white" fill-opacity="0.01" stroke="#4D4D4D"/>
<path d="M601 1806.5L613.716 1812.11C616.234 1813.22 619.185 1812.48 620.874 1810.3L639 1787" stroke="#4D4D4D"/>
<path d="M558.5 1546L558.5 1524.67C558.5 1522.16 556.944 1519.92 554.596 1519.04L529 1509.5" stroke="#4D4D4D"/>
<path d="M476.546 1564.54L510.052 1531.82C512.829 1529.11 512.339 1524.51 509.053 1522.45L469.306 1497.46C466.065 1495.43 461.77 1496.91 460.47 1500.51L445.065 1543.17C444.142 1545.72 445.053 1548.58 447.285 1550.13L468.93 1565.17C471.293 1566.81 474.488 1566.55 476.546 1564.54Z" fill="white" fill-opacity="0.01" stroke="#4D4D4D"/>
<path d="M504.897 1508.1L478.844 1514.34C476.036 1515.01 473.146 1513.59 471.969 1510.95L454.179 1471.12C452.574 1467.52 454.809 1463.38 458.696 1462.75L502.538 1455.63C506.188 1455.04 509.5 1457.86 509.5 1461.55L509.5 1502.27C509.5 1505.04 507.596 1507.46 504.897 1508.1Z" fill="white" fill-opacity="0.01" stroke="#4D4D4D"/>
<path d="M428.614 1620.76L454.477 1574.97C455.929 1572.4 455.294 1569.15 452.978 1567.31L385.635 1513.96C382.701 1511.64 378.378 1512.54 376.615 1515.84L332.346 1598.79C330.439 1602.37 332.546 1606.76 336.526 1607.52L422.276 1623.7C424.802 1624.18 427.35 1623 428.614 1620.76Z" fill="white" fill-opacity="0.01" stroke="#4D4D4D"/>
<path d="M337 1662.22L337 1705C337 1707.9 334.934 1710.38 332.087 1710.91L303.328 1716.2C300.752 1716.68 298.166 1715.43 296.939 1713.11L276.324 1674.21C274.428 1670.64 276.547 1666.25 280.528 1665.51L329.903 1656.32C333.593 1655.63 337 1658.47 337 1662.22Z" fill="white" fill-opacity="0.01" stroke="#4D4D4D"/>
<path d="M270.593 1748.45L295.887 1772.6C298.388 1774.98 302.384 1774.77 304.614 1772.13L334.273 1737.01C336.545 1734.32 336.022 1730.26 333.143 1728.23L295.401 1701.66C292.333 1699.49 288.056 1700.65 286.493 1704.06L269.282 1741.61C268.215 1743.94 268.742 1746.69 270.593 1748.45Z" fill="white" fill-opacity="0.01" stroke="#4D4D4D"/>
<path d="M220.569 1724.65L214.386 1751.2C213.847 1753.51 211.996 1755.29 209.665 1755.73L168.123 1763.64C164.425 1764.35 161 1761.51 161 1757.75L161 1714.68C161 1710.94 164.384 1708.11 168.065 1708.77L215.79 1717.38C219.168 1717.99 221.347 1721.3 220.569 1724.65Z" fill="white" fill-opacity="0.01" stroke="#4D4D4D"/>
<path d="M146.005 1736.77L189.542 1744.69C192.18 1745.17 194.816 1743.84 196 1741.43L206.812 1719.45C208.082 1716.87 207.34 1713.75 205.044 1712.01L166.47 1682.89C163.252 1680.46 158.602 1681.83 157.219 1685.62L141.443 1728.81C140.166 1732.31 142.345 1736.11 146.005 1736.77Z" fill="white" fill-opacity="0.01" stroke="#4D4D4D"/>
<path d="M173.274 1721.38L145.332 1766.26C143.945 1768.48 141.27 1769.55 138.73 1768.89L60.0109 1748.45C56.2101 1747.46 54.3662 1743.15 56.278 1739.72L99.9309 1661.4C101.776 1658.09 106.191 1657.3 109.071 1659.76L172.08 1713.65C174.334 1715.58 174.841 1718.86 173.274 1721.38Z" fill="white" fill-opacity="0.01" stroke="#4D4D4D"/>
<path d="M381 1749L381 1727.27C381 1724.96 379.681 1722.86 377.606 1721.86L353 1710" stroke="#4D4D4D"/>
<path d="M452 1716L439.178 1740.76C438.147 1742.75 436.092 1744 433.85 1744L411.5 1744" stroke="#4D4D4D"/>
<path d="M738.5 1549.02L712.628 1590.58C711.341 1592.65 708.931 1593.73 706.529 1593.32L668.803 1586.91C664.738 1586.22 662.565 1581.73 664.546 1578.11L699.628 1514.07C701.558 1510.54 706.339 1509.88 709.161 1512.74L737.676 1541.63C739.626 1543.61 739.966 1546.66 738.5 1549.02Z" fill="white" fill-opacity="0.01" stroke="#4D4D4D"/>
<path d="M328.168 1500.5L320.149 1524.55C319.443 1526.67 317.617 1528.22 315.411 1528.58L268.278 1536.17C264.218 1536.82 260.718 1533.29 261.41 1529.23L269.781 1480.15C270.414 1476.44 274.266 1474.22 277.792 1475.53L324.572 1492.98C327.6 1494.11 329.19 1497.43 328.168 1500.5Z" fill="white" fill-opacity="0.01" stroke="#4D4D4D"/>
<path d="M280.181 1480.29L193.005 1553.46C189.979 1556 185.365 1554.97 183.704 1551.39L130.03 1435.54C128.454 1432.14 130.349 1428.14 133.98 1427.21L246.383 1398.32C249.308 1397.56 252.336 1399.1 253.452 1401.91L281.899 1473.47C282.855 1475.88 282.162 1478.62 280.181 1480.29Z" fill="white" fill-opacity="0.01" stroke="#4D4D4D"/>
<path d="M104.772 1478.05L98.4518 1504.08C97.8763 1506.45 95.9233 1508.24 93.5114 1508.6L46.3567 1515.67C42.1342 1516.3 38.6201 1512.45 39.6406 1508.3L51.851 1458.7C52.7222 1455.16 56.5215 1453.21 59.9055 1454.56L101.17 1471.07C103.942 1472.18 105.477 1475.15 104.772 1478.05Z" fill="white" fill-opacity="0.01" stroke="#4D4D4D"/>
<path d="M425.975 1291.76L397.017 1319.17C394.965 1321.11 391.836 1321.36 389.504 1319.77L368.902 1305.67C366.613 1304.1 365.696 1301.17 366.683 1298.58L382.083 1258.16C383.527 1254.37 388.241 1253.07 391.419 1255.59L425.58 1282.7C428.44 1284.97 428.627 1289.25 425.975 1291.76Z" fill="white" fill-opacity="0.01" stroke="#4D4D4D"/>
<path d="M578.363 1279.2L555.878 1323.38C553.991 1327.09 548.997 1327.8 546.153 1324.76L505.162 1281.04C502.37 1278.06 503.303 1273.23 507.002 1271.5L548.489 1252.14C550.626 1251.14 553.15 1251.49 554.938 1253.03L576.927 1271.93C579.024 1273.73 579.617 1276.73 578.363 1279.2Z" fill="white" fill-opacity="0.01" stroke="#4D4D4D"/>
<path d="M951.097 1245.98L905.562 1319.37C904.068 1321.78 901.094 1322.81 898.428 1321.85L846.642 1303.17C843.945 1302.2 842.313 1299.46 842.747 1296.62L857.728 1198.8C858.352 1194.73 862.795 1192.49 866.442 1194.4L948.781 1237.51C951.87 1239.12 952.935 1243.02 951.097 1245.98Z" fill="white" fill-opacity="0.01" stroke="#4D4D4D"/>
<path d="M914.492 1161.56L884.277 1245.2C883.062 1248.56 879.194 1250.12 875.986 1248.54L823.352 1222.65C821.3 1221.64 820 1219.55 820 1217.26L820 1128.18C820 1123.99 824.198 1121.09 828.123 1122.57L910.971 1153.91C914.038 1155.07 915.606 1158.48 914.492 1161.56Z" fill="white" fill-opacity="0.01" stroke="#4D4D4D"/>
<path d="M1360.96 1105.2L1343.61 1183.72C1342.78 1187.46 1338.71 1189.48 1335.23 1187.87L1279.48 1162.11C1277.36 1161.13 1276 1159 1276 1156.66L1276 1069.91C1276 1065.52 1280.55 1062.62 1284.53 1064.47L1357.63 1098.47C1360.18 1099.66 1361.57 1102.46 1360.96 1105.2Z" fill="white" fill-opacity="0.01" stroke="#4D4D4D"/>
<path d="M843.99 1223.32L828.522 1245.79C827.554 1247.2 826.032 1248.12 824.338 1248.34L782.38 1253.68C777.782 1254.26 774.286 1249.64 776.103 1245.37L795.56 1199.72C796.893 1196.6 800.555 1195.2 803.632 1196.65L841.6 1214.49C844.952 1216.07 846.09 1220.27 843.99 1223.32Z" fill="white" fill-opacity="0.01" stroke="#4D4D4D"/>
<path d="M976.417 1165.6L992.112 1201.97C993.429 1205.02 992.014 1208.56 988.957 1209.86L963.91 1220.55C961.82 1221.44 959.406 1221.07 957.674 1219.6L924.733 1191.64C921.374 1188.79 922.132 1183.41 926.148 1181.6L968.44 1162.51C971.496 1161.13 975.089 1162.52 976.417 1165.6Z" fill="white" fill-opacity="0.01" stroke="#4D4D4D"/>
<path d="M1470.39 1071.74L1498.85 1047.28C1501.31 1045.17 1501.65 1041.5 1499.62 1038.97L1452.49 980.276C1450.24 977.47 1446.04 977.265 1443.52 979.837L1387.83 1036.77C1384.77 1039.91 1385.99 1045.17 1390.13 1046.63L1464.48 1072.85C1466.51 1073.56 1468.76 1073.14 1470.39 1071.74Z" fill="white" fill-opacity="0.01" stroke="#4D4D4D"/>
<path d="M1465.26 1040.45L1498.08 1022.25C1500.91 1020.68 1501.99 1017.15 1500.51 1014.27L1466.22 947.257C1464.58 944.054 1460.51 943.004 1457.52 945.015L1391.48 989.523C1387.84 991.974 1387.97 997.373 1391.73 999.637L1459.25 1040.34C1461.09 1041.45 1463.38 1041.49 1465.26 1040.45Z" fill="white" fill-opacity="0.01" stroke="#4D4D4D"/>
<path d="M1060.5 1052.5L1046.44 1073.59C1044.76 1076.11 1041.47 1076.98 1038.76 1075.63L1026.5 1069.5" stroke="#4D4D4D"/>
<path d="M964.971 1046.92L954.668 1076.68C953.706 1079.46 950.873 1081.13 947.976 1080.63L905.291 1073.26C901.534 1072.61 899.327 1068.67 900.738 1065.13L918.781 1019.83C920.186 1016.3 924.47 1014.95 927.645 1017.03L962.59 1039.94C964.889 1041.44 965.87 1044.32 964.971 1046.92Z" fill="white" fill-opacity="0.01" stroke="#4D4D4D"/>
<path d="M1058.47 965.698L1052.95 993.662C1052.4 996.473 1049.93 998.5 1047.07 998.5L1004.32 998.5C1000.53 998.5 997.693 995.036 998.435 991.323L1006.67 950.145C1007.38 946.613 1011.01 944.495 1014.44 945.624L1054.47 958.839C1057.34 959.788 1059.06 962.729 1058.47 965.698Z" fill="white" fill-opacity="0.01" stroke="#4D4D4D"/>
<path d="M1278.85 987.189L1270.61 1015.67C1269.94 1017.99 1267.94 1019.68 1265.54 1019.97L1218.49 1025.5C1214.36 1025.99 1211 1022.23 1211.95 1018.18L1223.04 970.735C1223.83 967.359 1227.31 965.353 1230.63 966.36L1274.83 979.78C1277.97 980.733 1279.77 984.035 1278.85 987.189Z" fill="white" fill-opacity="0.01" stroke="#4D4D4D"/>
<path d="M1280.8 980.508L1271.07 988.81C1269.47 990.17 1267.29 990.6 1265.3 989.944L1232.53 979.145C1228.6 977.852 1227.13 973.073 1229.64 969.795L1248.12 945.713C1250.4 942.74 1254.82 942.561 1257.33 945.341L1281.36 971.919C1283.63 974.427 1283.37 978.313 1280.8 980.508Z" fill="white" fill-opacity="0.01" stroke="#4D4D4D"/>
<path d="M1669.04 1068.55L1651.74 1098.04C1650.66 1099.87 1648.69 1101 1646.56 1101L1606.88 1101C1602.38 1101 1599.48 1096.23 1601.56 1092.23L1627.02 1043.24C1628.63 1040.14 1632.53 1039.07 1635.5 1040.9L1667.02 1060.42C1669.79 1062.13 1670.68 1065.74 1669.04 1068.55Z" fill="white" fill-opacity="0.01" stroke="#4D4D4D"/>
<path d="M1753.39 998.288L1736.63 1032.58C1734.84 1036.24 1729.99 1037.09 1727.06 1034.26L1691.97 1000.3C1689.18 997.598 1689.65 992.999 1692.93 990.919L1728.3 968.48C1730.95 966.799 1734.45 967.444 1736.33 969.96L1752.81 992.066C1754.16 993.868 1754.38 996.269 1753.39 998.288Z" fill="white" fill-opacity="0.01" stroke="#4D4D4D"/>
<path d="M779.976 1053.83L812.815 1025.04C815.555 1022.64 815.54 1018.37 812.783 1015.99L759.609 970.05C757.276 968.035 753.796 968.115 751.559 970.235L696.081 1022.81C692.72 1026 694.081 1031.63 698.526 1032.93L774.339 1055.08C776.308 1055.65 778.434 1055.18 779.976 1053.83Z" fill="white" fill-opacity="0.01" stroke="#4D4D4D"/>
<path d="M706.744 974.349L771.153 938.016C774.086 936.362 777.806 937.445 779.393 940.415L812.569 1002.51C814.171 1005.51 812.965 1009.24 809.912 1010.73L773.698 1028.44C771.727 1029.4 769.386 1029.21 767.595 1027.94L706.224 984.471C702.633 981.928 702.911 976.512 706.744 974.349Z" fill="white" fill-opacity="0.01" stroke="#4D4D4D"/>
<path d="M1920.29 1707.23L1952.9 1735.57C1955.62 1737.93 1959.78 1737.39 1961.8 1734.42L1985.69 1699.33C1987.88 1696.11 1986.48 1691.69 1982.83 1690.33L1943.12 1675.54C1940.67 1674.62 1937.91 1675.4 1936.3 1677.47L1919.5 1699.01C1917.54 1701.53 1917.89 1705.14 1920.29 1707.23Z" fill="white" fill-opacity="0.01" stroke="#4D4D4D"/>
<path d="M1987.27 1489.07L1969.95 1564.86C1969.38 1567.34 1970.44 1569.91 1972.59 1571.27L2013.52 1597.16C2016.08 1598.78 2019.44 1598.24 2021.36 1595.9L2072.81 1533.22C2075.23 1530.27 2074.32 1525.85 2070.94 1524.09L1995.89 1485.08C1992.4 1483.27 1988.15 1485.24 1987.27 1489.07Z" fill="white" fill-opacity="0.01" stroke="#4D4D4D"/>
<path d="M1963.05 1461.63L1926.12 1468.65C1922.42 1469.35 1919 1466.52 1919 1462.75L1919 1442.23C1919 1440.5 1919.75 1438.85 1921.06 1437.71L1950.2 1412.3C1953.68 1409.27 1959.13 1411.13 1960.03 1415.64L1967.81 1454.56C1968.47 1457.83 1966.33 1461.01 1963.05 1461.63Z" fill="white" fill-opacity="0.01" stroke="#4D4D4D"/>
<path d="M1833.68 1380.5L1798 1380.5C1794.69 1380.5 1792 1377.81 1792 1374.5L1792 1345.69C1792 1343.43 1793.27 1341.36 1795.29 1340.33L1822.45 1326.57C1825.99 1324.78 1830.27 1326.85 1831.05 1330.75L1839.56 1373.32C1840.31 1377.04 1837.47 1380.5 1833.68 1380.5Z" fill="white" fill-opacity="0.01" stroke="#4D4D4D"/>
<path d="M1901.11 1222.84L1860.39 1240.94C1856.87 1242.5 1855.72 1246.94 1858.04 1250.03L1884.29 1284.9C1885.89 1287.03 1888.72 1287.85 1891.21 1286.9L1917.41 1276.93C1920.3 1275.84 1921.88 1272.73 1921.07 1269.75L1909.34 1226.74C1908.37 1223.2 1904.47 1221.35 1901.11 1222.84Z" fill="white" fill-opacity="0.01" stroke="#4D4D4D"/>
<path d="M1918.11 1271.36L1892.63 1263.6C1890.41 1262.93 1888.78 1261.04 1888.44 1258.75L1881.82 1214.37C1881.19 1210.14 1885.05 1206.63 1889.2 1207.66L1936.46 1219.38C1939.94 1220.24 1941.89 1223.95 1940.63 1227.31L1925.48 1267.73C1924.37 1270.69 1921.14 1272.28 1918.11 1271.36Z" fill="white" fill-opacity="0.01" stroke="#4D4D4D"/>
<path d="M1968.38 1174.25L1952.36 1221.52C1951.32 1224.58 1948.05 1226.27 1944.96 1225.35L1920.87 1218.16C1918.53 1217.46 1916.85 1215.41 1916.62 1212.98L1911.79 1162.32C1911.4 1158.24 1915.14 1154.97 1919.14 1155.92L1964.07 1166.49C1967.52 1167.3 1969.52 1170.9 1968.38 1174.25Z" fill="white" fill-opacity="0.01" stroke="#4D4D4D"/>
<path d="M2062.87 1724L1981.5 1724C1978.19 1724 1975.5 1721.31 1975.5 1718L1975.5 1662.02C1975.5 1659.59 1976.97 1657.4 1979.22 1656.47L2052.05 1626.56C2055.76 1625.03 2059.9 1627.52 2060.3 1631.52L2068.84 1717.41C2069.2 1720.94 2066.42 1724 2062.87 1724Z" fill="white" fill-opacity="0.01" stroke="#4D4D4D"/>
<path d="M2054.96 1446.12L2038.39 1528.07C2037.86 1530.69 2039.13 1533.35 2041.51 1534.58L2082.26 1555.79C2084.74 1557.08 2087.79 1556.49 2089.6 1554.36L2144.49 1489.88C2147.03 1486.9 2146.08 1482.33 2142.56 1480.6L2063.48 1441.91C2059.95 1440.19 2055.74 1442.26 2054.96 1446.12Z" fill="white" fill-opacity="0.01" stroke="#4D4D4D"/>
<path d="M2046.15 1358.58L2033.42 1347.13C2031.65 1345.53 2030.99 1343.04 2031.74 1340.77L2041.4 1311.79C2042.82 1307.54 2048.23 1306.29 2051.37 1309.48L2072.44 1330.87C2074.7 1333.18 2074.74 1336.86 2072.52 1339.21L2054.52 1358.25C2052.28 1360.61 2048.57 1360.76 2046.15 1358.58Z" fill="white" fill-opacity="0.01" stroke="#4D4D4D"/>
<path d="M1971.5 1143.5L1948.82 1126.38C1946.59 1124.7 1945.82 1121.69 1946.97 1119.13L1954 1103.5" stroke="#4D4D4D"/>
<path d="M2150.35 1594.63L2125.34 1568.49C2123.39 1566.45 2123.12 1563.33 2124.69 1560.99L2139.73 1538.63C2141.34 1536.23 2144.42 1535.32 2147.07 1536.46L2184.12 1552.34C2187.8 1553.92 2188.93 1558.6 2186.37 1561.68L2159.3 1594.32C2157.01 1597.08 2152.82 1597.23 2150.35 1594.63Z" fill="white" fill-opacity="0.01" stroke="#4D4D4D"/>
<path d="M2125.75 1764.18L2107.21 1753.2C2105 1751.89 2103.87 1749.3 2104.41 1746.78L2111.8 1712.42C2112.64 1708.48 2117.06 1706.48 2120.58 1708.44L2151.65 1725.74C2154.77 1727.48 2155.69 1731.55 2153.62 1734.46L2133.7 1762.5C2131.89 1765.04 2128.43 1765.78 2125.75 1764.18Z" fill="white" fill-opacity="0.01" stroke="#4D4D4D"/>
<path d="M2153 1387.26L2164.38 1405.74C2165.9 1408.2 2168.96 1409.23 2171.67 1408.18L2210.46 1393.05C2213.89 1391.71 2215.32 1387.62 2213.46 1384.44L2188.87 1342.34C2186.63 1338.5 2181.13 1338.35 2178.68 1342.06L2153.11 1380.81C2151.82 1382.75 2151.78 1385.27 2153 1387.26Z" fill="white" fill-opacity="0.01" stroke="#4D4D4D"/>
<path d="M2127.3 1074.06L2105.69 1125.75C2104.46 1128.7 2105.75 1132.09 2108.62 1133.47L2184.44 1170.08C2187.67 1171.63 2191.54 1170.03 2192.72 1166.65L2220.96 1085.76C2222.25 1082.08 2219.73 1078.16 2215.84 1077.81L2133.38 1070.39C2130.77 1070.16 2128.31 1071.64 2127.3 1074.06Z" fill="white" fill-opacity="0.01" stroke="#4D4D4D"/>
<path d="M2118.86 986.999L2094.33 971.76C2092.57 970.666 2091.5 968.738 2091.5 966.664L2091.5 922.946C2091.5 918.55 2096.07 915.646 2100.05 917.515L2143.48 937.907C2146.51 939.332 2147.79 942.968 2146.32 945.978L2127.42 984.543C2125.86 987.732 2121.88 988.873 2118.86 986.999Z" fill="white" fill-opacity="0.01" stroke="#4D4D4D"/>
<path d="M1968.17 1041.79L1943.07 1027.72C1941.17 1026.66 1940 1024.66 1940 1022.49L1940 979.336C1940 974.968 1944.52 972.064 1948.49 973.878L1997.08 996.067C2000.44 997.604 2001.63 1001.79 1999.57 1004.87L1976.08 1039.9C1974.34 1042.5 1970.9 1043.32 1968.17 1041.79Z" fill="white" fill-opacity="0.01" stroke="#4D4D4D"/>
<path d="M1909.16 977.764L1868.22 982.691C1864.64 983.121 1861.5 980.332 1861.5 976.734L1861.5 949.69C1861.5 947.696 1862.49 945.831 1864.15 944.716L1896.91 922.619C1900.49 920.203 1905.38 922.253 1906.16 926.503L1914.34 970.716C1914.97 974.121 1912.59 977.35 1909.16 977.764Z" fill="white" fill-opacity="0.01" stroke="#4D4D4D"/>
<path d="M1890.91 959.726L1855.8 932.599C1852.98 930.413 1852.67 926.251 1855.16 923.681L1889.43 888.246C1892.05 885.529 1896.51 885.889 1898.67 888.992L1927.67 930.716C1929.53 933.381 1928.92 937.035 1926.32 938.965L1898.15 959.802C1895.99 961.398 1893.03 961.367 1890.91 959.726Z" fill="white" fill-opacity="0.01" stroke="#4D4D4D"/>
<path d="M1831.65 850.991L1801.88 842.593C1799.53 841.932 1797.82 839.919 1797.54 837.5L1792.8 796.043C1792.38 792.357 1795.37 789.176 1799.08 789.37L1850.88 792.076C1854.91 792.287 1857.59 796.341 1856.2 800.133L1838.91 847.282C1837.83 850.226 1834.67 851.843 1831.65 850.991Z" fill="white" fill-opacity="0.01" stroke="#4D4D4D"/>
<path d="M1904.77 805.873L1868.11 783.104C1864.77 781.029 1864.29 776.355 1867.15 773.651L1903.57 739.14C1906.36 736.502 1910.87 737.119 1912.85 740.409L1933.7 775.163C1935.06 777.439 1934.77 780.343 1932.98 782.301L1912.36 804.827C1910.41 806.957 1907.22 807.396 1904.77 805.873Z" fill="white" fill-opacity="0.01" stroke="#4D4D4D"/>
<path d="M1907.46 593.509L1864.42 566.958C1861.13 564.933 1860.59 560.38 1863.3 557.635L1893.35 527.209C1895.84 524.686 1899.96 524.863 1902.23 527.589L1934 565.791C1935.98 568.176 1935.82 571.678 1933.63 573.87L1914.85 592.645C1912.89 594.612 1909.83 594.969 1907.46 593.509Z" fill="white" fill-opacity="0.01" stroke="#4D4D4D"/>
<path d="M1905.18 575.967L1945.61 640.399C1947.25 643.011 1950.6 643.955 1953.36 642.583L2023.78 607.592C2027.06 605.963 2028.12 601.801 2026.03 598.794L1961.78 506.368C1959.43 502.996 1954.47 502.923 1952.03 506.225L1905.43 569.209C1903.97 571.194 1903.86 573.876 1905.18 575.967Z" fill="white" fill-opacity="0.01" stroke="#4D4D4D"/>
<path d="M1974.77 449.508L1952.36 440.972C1950.04 440.086 1948.5 437.855 1948.5 435.365L1948.5 391.801C1948.5 387.573 1952.76 384.671 1956.69 386.216L1996.07 401.673C1999.29 402.935 2000.77 406.645 1999.32 409.78L1982.35 446.423C1981.03 449.282 1977.72 450.63 1974.77 449.508Z" fill="white" fill-opacity="0.01" stroke="#4D4D4D"/>
<path d="M1796.91 486.574L1829.32 503.752C1832.2 505.28 1835.77 504.226 1837.36 501.379L1857.4 465.543C1859.08 462.534 1857.89 458.729 1854.79 457.22L1810.05 435.435C1806.5 433.704 1802.27 435.823 1801.53 439.706L1793.83 480.15C1793.34 482.736 1794.59 485.341 1796.91 486.574Z" fill="white" fill-opacity="0.01" stroke="#4D4D4D"/>
<path d="M2157.08 761.545L2143.2 840.027C2142.78 842.43 2143.85 844.85 2145.91 846.149L2191.65 874.945C2194.36 876.654 2197.94 875.926 2199.77 873.291L2246.11 806.604C2248.17 803.633 2247.15 799.523 2243.94 797.856L2165.75 757.264C2162.16 755.398 2157.78 757.556 2157.08 761.545Z" fill="white" fill-opacity="0.01" stroke="#4D4D4D"/>
<path d="M2184.84 727.215L2166.92 810.239C2166.37 812.78 2167.52 815.385 2169.77 816.691L2210.57 840.425C2213.12 841.908 2216.37 841.317 2218.24 839.031L2272.36 772.692C2274.76 769.751 2273.86 765.35 2270.5 763.586L2193.49 723.168C2189.98 721.324 2185.67 723.337 2184.84 727.215Z" fill="white" fill-opacity="0.01" stroke="#4D4D4D"/>
<path d="M2005.33 897.733L2031.57 935.561C2033.46 938.287 2032.78 942.031 2030.06 943.918L2004.01 961.919C2002.16 963.197 1999.75 963.335 1997.77 962.276L1963.75 944.106C1960.32 942.272 1959.51 937.702 1962.11 934.805L1995.93 897.145C1998.52 894.263 2003.12 894.551 2005.33 897.733Z" fill="white" fill-opacity="0.01"/>
<path d="M2245.5 1070L2193.43 1034.98C2190.9 1033.28 2190.05 1029.96 2191.45 1027.25L2206 999M1997.77 962.276L1963.75 944.106C1960.32 942.272 1959.51 937.702 1962.11 934.805L1995.93 897.145C1998.52 894.263 2003.12 894.551 2005.33 897.733L2031.57 935.561C2033.46 938.287 2032.78 942.031 2030.06 943.918L2004.01 961.919C2002.16 963.197 1999.75 963.335 1997.77 962.276Z" stroke="#4D4D4D"/>
<path d="M2182 838L2156.59 817.051C2154.72 815.507 2153.96 812.987 2154.67 810.666L2161 790" stroke="#4D4D4D"/>
<path d="M2252.5 1587L2225.69 1566.79C2223.52 1565.14 2222.72 1562.24 2223.75 1559.72L2234.5 1533.5" stroke="#4D4D4D"/>
<path d="M2252.5 1587L2225.69 1566.79C2223.52 1565.14 2222.72 1562.24 2223.75 1559.72L2234.5 1533.5" stroke="#4D4D4D"/>
<path d="M2049.53 870.899L2079.1 903.588C2081.64 906.391 2086.1 906.18 2088.36 903.15L2122.86 856.896C2125.35 853.55 2123.75 848.742 2119.75 847.556L2077.75 835.111C2075.47 834.436 2073.01 835.169 2071.47 836.982L2049.4 862.991C2047.45 865.286 2047.51 868.667 2049.53 870.899Z" fill="white" fill-opacity="0.01" stroke="#4D4D4D"/>
<path d="M2062.12 771.553L2020.31 832.035C2017.96 835.437 2019.68 840.143 2023.67 841.234L2070.93 854.159C2072.85 854.685 2074.91 854.222 2076.42 852.923L2105.36 828.061C2107.7 826.043 2108.13 822.568 2106.34 820.041L2071.96 771.497C2069.55 768.097 2064.49 768.126 2062.12 771.553Z" fill="white" fill-opacity="0.01" stroke="#4D4D4D"/>
<path d="M2024.07 1155.86L2100.08 1198.66C2103.22 1200.43 2107.21 1199.05 2108.57 1195.71L2144.42 1108.03C2145.95 1104.29 2143.42 1100.14 2139.39 1099.79L2054.98 1092.35C2052.57 1092.14 2050.27 1093.4 2049.14 1095.54L2021.71 1147.84C2020.2 1150.72 2021.25 1154.27 2024.07 1155.86Z" fill="white" fill-opacity="0.01" stroke="#4D4D4D"/>
<path d="M2030 1182.5L2004.11 1159.73C2002.24 1158.09 2001.58 1155.46 2002.45 1153.12L2013 1125" stroke="#4D4D4D"/>
<path d="M2127 1198.5L2134.35 1169.1C2135.38 1164.98 2140.24 1163.2 2143.68 1165.69L2163.5 1180" stroke="#4D4D4D"/>
<path d="M2241.15 696.74L2129.59 715.71C2125.74 716.365 2122.3 713.222 2122.6 709.326L2132.45 583.539C2132.74 579.85 2136.26 577.3 2139.86 578.18L2252.26 605.716C2255.24 606.446 2257.19 609.306 2256.78 612.346L2246.09 691.626C2245.74 694.228 2243.74 696.3 2241.15 696.74Z" fill="white" fill-opacity="0.01" stroke="#4D4D4D"/>
<path d="M2001.32 726.594L2013.2 772.918C2013.94 775.828 2012.42 778.842 2009.64 779.97L1979.63 792.123C1976.95 793.21 1973.87 792.224 1972.32 789.779L1948.12 751.695C1946.19 748.663 1947.34 744.63 1950.58 743.071L1992.9 722.679C1996.31 721.035 2000.38 722.925 2001.32 726.594Z" fill="white" fill-opacity="0.01" stroke="#4D4D4D"/>
<path d="M1979.51 763.169L1974.06 720.292C1973.54 716.219 1977.17 712.841 1981.19 713.652L2025.96 722.681C2029.45 723.386 2031.57 726.964 2030.5 730.364L2017.29 772.303C2016.3 775.453 2012.95 777.21 2009.79 776.232L1983.69 768.143C1981.44 767.447 1979.81 765.502 1979.51 763.169Z" fill="white" fill-opacity="0.01" stroke="#4D4D4D"/>
<path d="M1806.5 564L1800.89 576.716C1799.78 579.234 1800.52 582.185 1802.7 583.874L1826 602" stroke="#4D4D4D"/>
<path d="M2067 521.5L2088.33 521.5C2090.84 521.5 2093.08 519.944 2093.96 517.596L2103.5 492" stroke="#4D4D4D"/>
<path d="M2048.46 439.546L2081.18 473.052C2083.89 475.829 2088.49 475.339 2090.55 472.053L2115.54 432.306C2117.57 429.065 2116.09 424.77 2112.49 423.47L2069.83 408.065C2067.28 407.142 2064.42 408.053 2062.87 410.285L2047.83 431.93C2046.19 434.293 2046.45 437.488 2048.46 439.546Z" fill="white" fill-opacity="0.01" stroke="#4D4D4D"/>
<path d="M2104.9 467.897L2098.66 441.844C2097.99 439.036 2099.41 436.146 2102.05 434.969L2141.88 417.179C2145.48 415.574 2149.62 417.809 2150.25 421.696L2157.37 465.538C2157.96 469.188 2155.14 472.5 2151.45 472.5L2110.73 472.5C2107.96 472.5 2105.54 470.596 2104.9 467.897Z" fill="white" fill-opacity="0.01" stroke="#4D4D4D"/>
<path d="M1992.24 391.614L2038.03 417.477C2040.6 418.929 2043.85 418.294 2045.69 415.978L2099.04 348.635C2101.36 345.701 2100.46 341.378 2097.16 339.615L2014.21 295.346C2010.63 293.439 2006.24 295.546 2005.48 299.526L1989.3 385.276C1988.82 387.802 1990 390.35 1992.24 391.614Z" fill="white" fill-opacity="0.01" stroke="#4D4D4D"/>
<path d="M1950.78 300L1908 300C1905.1 300 1902.62 297.934 1902.09 295.087L1896.8 266.328C1896.32 263.752 1897.57 261.166 1899.89 259.939L1938.79 239.324C1942.36 237.428 1946.75 239.547 1947.49 243.528L1956.68 292.903C1957.37 296.593 1954.53 300 1950.78 300Z" fill="white" fill-opacity="0.01" stroke="#4D4D4D"/>
<path d="M1864.55 233.593L1840.4 258.887C1838.02 261.388 1838.23 265.384 1840.87 267.614L1875.99 297.273C1878.68 299.545 1882.74 299.022 1884.77 296.143L1911.34 258.401C1913.51 255.333 1912.35 251.056 1908.94 249.493L1871.39 232.282C1869.06 231.215 1866.31 231.742 1864.55 233.593Z" fill="white" fill-opacity="0.01" stroke="#4D4D4D"/>
<path d="M1888.35 183.569L1861.8 177.386C1859.49 176.847 1857.71 174.996 1857.27 172.665L1849.36 131.123C1848.65 127.425 1851.49 124 1855.25 124L1898.32 124C1902.06 124 1904.89 127.384 1904.23 131.065L1895.62 178.79C1895.01 182.168 1891.7 184.347 1888.35 183.569Z" fill="white" fill-opacity="0.01" stroke="#4D4D4D"/>
<path d="M1876.23 109.005L1868.31 152.542C1867.83 155.18 1869.16 157.816 1871.57 159L1893.55 169.812C1896.13 171.082 1899.25 170.34 1900.99 168.044L1930.11 129.47C1932.54 126.252 1931.17 121.602 1927.38 120.219L1884.19 104.443C1880.69 103.166 1876.89 105.345 1876.23 109.005Z" fill="white" fill-opacity="0.01" stroke="#4D4D4D"/>
<path d="M1891.62 136.274L1846.74 108.332C1844.52 106.945 1843.45 104.27 1844.11 101.73L1864.55 23.0109C1865.54 19.2101 1869.85 17.3662 1873.28 19.278L1951.6 62.9309C1954.91 64.7762 1955.7 69.1909 1953.24 72.0714L1899.35 135.08C1897.42 137.334 1894.14 137.841 1891.62 136.274Z" fill="white" fill-opacity="0.01" stroke="#4D4D4D"/>
<path d="M1864 344L1885.73 344C1888.04 344 1890.14 342.681 1891.14 340.606L1903 316" stroke="#4D4D4D"/>
<path d="M1897 415L1872.24 402.178C1870.25 401.147 1869 399.092 1869 396.85L1869 374.5" stroke="#4D4D4D"/>
<path d="M2063.98 701.5L2022.42 675.628C2020.35 674.341 2019.27 671.931 2019.68 669.529L2026.09 631.803C2026.78 627.738 2031.27 625.565 2034.89 627.546L2098.93 662.628C2102.46 664.558 2103.12 669.339 2100.26 672.161L2071.37 700.676C2069.39 702.626 2066.34 702.966 2063.98 701.5Z" fill="white" fill-opacity="0.01" stroke="#4D4D4D"/>
<path d="M2112.5 291.168L2088.45 283.149C2086.33 282.443 2084.78 280.617 2084.42 278.411L2076.83 231.278C2076.18 227.218 2079.71 223.718 2083.77 224.41L2132.85 232.781C2136.56 233.414 2138.78 237.266 2137.47 240.792L2120.02 287.572C2118.89 290.6 2115.57 292.19 2112.5 291.168Z" fill="white" fill-opacity="0.01" stroke="#4D4D4D"/>
<path d="M2132.71 243.181L2059.54 156.005C2057 152.979 2058.03 148.365 2061.61 146.704L2177.46 93.0298C2180.86 91.4536 2184.86 93.3489 2185.79 96.9803L2214.68 209.383C2215.44 212.308 2213.9 215.336 2211.09 216.452L2139.53 244.899C2137.12 245.855 2134.38 245.162 2132.71 243.181Z" fill="white" fill-opacity="0.01" stroke="#4D4D4D"/>
<path d="M2134.95 67.7724L2108.92 61.4518C2106.55 60.8763 2104.76 58.9233 2104.4 56.5114L2097.33 9.35675C2096.7 5.1342 2100.55 1.62006 2104.7 2.64062L2154.3 14.851C2157.84 15.7222 2159.79 19.5215 2158.44 22.9055L2141.93 64.1702C2140.82 66.9418 2137.85 68.4768 2134.95 67.7724Z" fill="white" fill-opacity="0.01" stroke="#4D4D4D"/>
</svg>
